<svg width="62" height="61" viewBox="0 0 62 61" fill="none" xmlns="http://www.w3.org/2000/svg">
<path d="M31.5404 26.4289C31.5404 26.4289 31.3378 25.0273 31.2703 22.9584C31.2703 22.4245 31.2703 21.8906 31.2703 21.2899C31.2703 20.6893 31.2703 20.0219 31.3378 19.4212C31.3378 19.0875 31.4053 18.7538 31.4053 18.4201C31.4729 18.0864 31.4729 17.7527 31.5404 17.419C31.608 16.7516 31.743 16.0175 31.8106 15.3501C31.8781 14.6827 32.0807 13.9486 32.1483 13.2812C32.2833 12.6138 32.4859 11.9464 32.621 11.279C32.7561 10.6116 32.9587 10.0109 33.1613 9.41028C33.2964 8.80962 33.499 8.2757 33.7016 7.80853C33.9043 7.27461 34.0393 6.80743 34.1744 6.407C34.3095 6.00656 34.5121 5.67286 34.5796 5.33916C34.7822 4.73851 34.9173 4.40481 34.9173 4.40481C35.0524 4.00437 35.4576 3.87089 35.7953 4.00437C36.133 4.13785 36.2681 4.53829 36.133 4.87198V4.93872C36.133 4.93872 35.9979 5.27242 35.7278 5.80634C35.5927 6.0733 35.4576 6.407 35.255 6.80743C35.0524 7.20787 34.9173 7.60831 34.7147 8.14223C34.5121 8.6094 34.3095 9.14332 34.1069 9.67724C33.9043 10.2112 33.7016 10.8118 33.499 11.4792C33.2964 12.0131 33.0938 12.6805 32.8912 13.3479C32.7561 14.0153 32.5535 14.6827 32.4184 15.3501C32.2833 16.0175 32.1483 16.6849 32.0132 17.419C31.9456 17.7527 31.8781 18.0864 31.8781 18.4201C31.8106 18.7538 31.8106 19.0875 31.743 19.4212C31.6755 20.0886 31.608 20.6893 31.5404 21.2899C31.5404 21.8906 31.4729 22.4245 31.4729 22.9584C31.4053 25.0273 31.5404 26.4289 31.5404 26.4289Z" fill="#F5EB16"/>
<path d="M32.7561 26.6291C32.7561 26.6291 32.8236 25.628 33.2289 24.1597C33.2964 23.7593 33.4315 23.4256 33.499 22.9584C33.6341 22.558 33.7692 22.0908 33.9043 21.6236C34.0393 21.1565 34.1744 20.6893 34.377 20.2221C34.5121 19.7549 34.7147 19.2877 34.9173 18.8206C35.1199 18.3534 35.3226 17.8862 35.5252 17.419C35.7278 16.9519 35.9979 16.5514 36.2005 16.0842C36.4032 15.6838 36.6733 15.2834 36.8759 14.8829C37.0785 14.4825 37.3487 14.1488 37.5513 13.8151C37.7539 13.4814 37.9565 13.2144 38.1592 12.9475C38.3618 12.6805 38.4968 12.4803 38.6319 12.2801C38.9021 11.9464 39.0371 11.6794 39.0371 11.6794C39.2398 11.4125 39.645 11.3457 39.9827 11.546C40.2528 11.7462 40.3204 12.1466 40.1178 12.4803C40.1178 12.4803 40.1178 12.4803 40.1178 12.547C40.1178 12.547 39.9827 12.7473 39.645 13.081C39.5099 13.2144 39.3073 13.4147 39.1047 13.6816C38.9021 13.8818 38.6995 14.2155 38.4968 14.4825C38.2942 14.7495 38.0241 15.0832 37.7539 15.4168C37.4838 15.7505 37.2136 16.151 37.011 16.5514C36.7409 16.9519 36.4707 17.3523 36.2681 17.7527C35.9979 18.1532 35.7953 18.6203 35.5252 19.0875C35.3226 19.5547 35.0524 19.9551 34.8498 20.4223C34.6472 20.8895 34.4446 21.2899 34.2419 21.7571C34.0393 22.1575 33.9043 22.6247 33.7692 23.0252C33.6341 23.4256 33.499 23.826 33.3639 24.1597C32.9587 25.628 32.7561 26.6291 32.7561 26.6291Z" fill="#ED2224"/>
<path d="M33.4314 18.954C33.4314 18.954 33.4989 18.1532 33.7691 17.0186C33.9042 16.4179 34.1068 15.7505 34.3769 15.0831C34.512 14.7494 34.6471 14.349 34.7822 14.0153C34.9172 13.6149 35.1199 13.2812 35.2549 12.9475C35.39 12.6138 35.5926 12.2133 35.7952 11.8796C35.9978 11.5459 36.2005 11.2122 36.3355 10.8785C36.5381 10.5449 36.7408 10.2779 36.8758 9.9442C37.0785 9.67724 37.2811 9.41028 37.4161 9.14332C37.6188 8.87636 37.7538 8.67614 37.8889 8.47592C38.024 8.2757 38.1591 8.14223 38.2941 7.94201C38.4968 7.67505 38.6318 7.47483 38.6318 7.47483C38.7669 7.27461 39.0371 7.27461 39.2397 7.40809C39.4423 7.54157 39.4423 7.80853 39.3072 8.00875C39.3072 8.00875 39.1721 8.14223 38.9695 8.40918C38.8344 8.54266 38.6994 8.67614 38.5643 8.87636C38.4292 9.07658 38.2266 9.2768 38.0915 9.47702C37.8889 9.74398 37.6863 9.9442 37.4837 10.2112C37.2811 10.4781 37.0785 10.7451 36.8758 11.0788C36.6732 11.4125 36.4706 11.6794 36.268 12.0131C36.0654 12.3468 35.8628 12.6805 35.6602 13.0142C35.4575 13.3479 35.2549 13.6816 35.1198 14.0821C34.9848 14.4157 34.7822 14.7494 34.6471 15.1499C34.3769 15.8173 34.1068 16.4847 33.9042 17.0186C33.5665 18.1532 33.4314 18.954 33.4314 18.954Z" fill="#6BCCE1"/>
<path d="M40.8606 14.2823C40.8606 14.2823 40.9281 14.1488 40.9957 14.0153C41.0632 13.8151 41.1983 13.5481 41.4009 13.2812C41.4684 13.1477 41.6035 12.9475 41.6711 12.814C41.8061 12.6138 41.8737 12.4803 42.0087 12.2801C42.1438 12.0799 42.2789 11.8797 42.414 11.7462C42.549 11.546 42.7517 11.4125 42.8867 11.2123C43.0218 11.012 43.2244 10.8786 43.3595 10.6783C43.5621 10.5449 43.6972 10.3446 43.8323 10.2112C43.9674 10.0777 44.17 9.87747 44.305 9.74399C44.4401 9.61051 44.6427 9.47703 44.7778 9.34355C45.3181 8.87637 45.7233 8.60941 45.7233 8.60941C45.926 8.47594 46.1961 8.47594 46.3312 8.67615C46.4663 8.87637 46.4663 9.14333 46.2636 9.27681C46.2636 9.27681 46.2636 9.27681 46.1961 9.27681H46.1286C46.1286 9.27681 45.7233 9.54377 45.1155 9.87747C44.9804 9.94421 44.7778 10.0777 44.6427 10.2112C44.5077 10.3446 44.305 10.4781 44.17 10.6116C43.9674 10.7451 43.8323 10.8786 43.6297 11.012C43.427 11.1455 43.292 11.3457 43.0894 11.4792C42.9543 11.6127 42.7517 11.8129 42.6166 11.9464C42.4815 12.1466 42.2789 12.2801 42.1438 12.4136C42.0087 12.5471 41.8737 12.7473 41.7386 12.8807C41.6035 13.0142 41.4684 13.2144 41.4009 13.3479C41.1983 13.6149 40.9957 13.8818 40.9281 14.0821C40.8606 14.2155 40.8606 14.2823 40.8606 14.2823Z" fill="#6BCCE1"/>
<path d="M34.512 27.7637C34.512 27.7637 35.1198 26.9628 36.1329 25.8282C36.403 25.5613 36.6732 25.2276 37.0109 24.9606C37.3486 24.6937 37.6863 24.36 38.0239 24.0263C38.3616 23.6926 38.7669 23.3589 39.1721 23.0919C39.5773 22.7582 39.9826 22.4245 40.3878 22.1575C40.793 21.8238 41.1982 21.5569 41.6035 21.2899C42.0087 21.023 42.4139 20.756 42.8192 20.4891C43.2244 20.2221 43.6296 20.0219 44.0348 19.8217C44.4401 19.6214 44.7778 19.4212 45.1155 19.221C45.4531 19.0208 45.7908 18.8873 46.061 18.7538C46.3311 18.6203 46.6013 18.4869 46.8039 18.4201C47.2091 18.2199 47.4793 18.1532 47.4793 18.1532C47.817 18.0197 48.2222 18.1532 48.3573 18.4869C48.4924 18.8206 48.3573 19.221 48.0196 19.3545C48.0196 19.3545 48.0196 19.3545 47.9521 19.3545H47.8845C47.8845 19.3545 47.6819 19.4212 47.2091 19.5547C47.0065 19.6214 46.7364 19.6882 46.4662 19.8217C46.1961 19.8884 45.8584 20.0886 45.5207 20.2221C45.183 20.3556 44.7778 20.4891 44.4401 20.6893C44.0348 20.8895 43.6296 21.023 43.2244 21.2899C42.8192 21.4901 42.3464 21.6904 41.9412 21.9573C41.5359 22.2243 41.0632 22.4245 40.6579 22.7582C40.2527 23.0252 39.7799 23.2921 39.4422 23.5591C39.037 23.826 38.6318 24.1597 38.2941 24.4267C37.8889 24.6937 37.5512 25.0274 37.2135 25.2943C36.8758 25.5613 36.5381 25.8282 36.268 26.0952C35.1198 27.0295 34.512 27.7637 34.512 27.7637Z" fill="#ED2224"/>
<path d="M38.9019 21.4234C38.9019 21.4234 39.3746 20.756 40.1851 19.8884C40.5903 19.488 41.1306 18.9541 41.6709 18.4869C41.9411 18.2199 42.2788 18.0197 42.5489 17.7527C42.8866 17.4858 43.1568 17.2856 43.4945 17.0186C43.8321 16.8184 44.1698 16.5514 44.5075 16.3512C44.8452 16.151 45.1829 15.9508 45.5206 15.7506C45.8583 15.5503 46.196 15.4169 46.4661 15.2166C46.7363 15.0164 47.074 14.8829 47.3441 14.7495C47.6143 14.616 47.8844 14.4825 48.087 14.4158C48.2897 14.349 48.4923 14.2155 48.6949 14.1488C49.0326 14.0153 49.2352 13.9486 49.2352 13.9486C49.4378 13.8818 49.708 13.9486 49.7755 14.1488C49.843 14.349 49.7755 14.616 49.5729 14.6827C49.5729 14.6827 49.3703 14.7495 49.0326 14.8829C48.8975 14.9497 48.6949 15.0164 48.4247 15.0832C48.2221 15.1499 47.952 15.2834 47.6818 15.3501C47.4117 15.4836 47.074 15.5503 46.8038 15.7506C46.4661 15.884 46.196 16.0175 45.8583 16.2177C45.5206 16.4179 45.1829 16.5514 44.8452 16.7516C44.5075 16.9519 44.1698 17.1521 43.8321 17.3523C43.4945 17.5525 43.1568 17.7527 42.8191 18.0197C42.4814 18.2199 42.2112 18.4869 41.8735 18.6871C41.2657 19.1543 40.7254 19.5547 40.3202 19.9551C39.3746 20.8228 38.9019 21.4234 38.9019 21.4234Z" fill="#6BCCE1"/>
<path d="M47.6819 21.0897C47.6819 21.0897 47.7494 21.023 47.952 20.8895C48.0871 20.756 48.3573 20.6225 48.695 20.4223C48.83 20.3556 49.0326 20.2221 49.2353 20.1554C49.4379 20.0886 49.6405 19.9551 49.8431 19.8884C50.0457 19.8217 50.2483 19.6882 50.4509 19.6214C50.6536 19.488 50.9237 19.488 51.1263 19.3545C51.3289 19.2877 51.5991 19.221 51.8017 19.0875C52.0043 19.0208 52.2745 18.9541 52.4771 18.8873C52.6797 18.8206 52.8823 18.7538 53.0849 18.7538C53.2875 18.6871 53.4902 18.6871 53.6928 18.6204C54.4357 18.4869 54.9085 18.4201 54.9085 18.4201C55.1786 18.3534 55.3812 18.5536 55.3812 18.7538C55.4488 19.0208 55.2462 19.221 55.0435 19.221C55.0435 19.221 55.0435 19.221 54.976 19.221H54.9085C54.9085 19.221 54.4357 19.221 53.7603 19.2877C53.5577 19.2877 53.4226 19.2877 53.22 19.3545C53.0174 19.3545 52.8148 19.4212 52.6122 19.4212C52.4096 19.4212 52.1394 19.488 51.9368 19.488C51.7342 19.5547 51.464 19.6214 51.2614 19.6214C51.0588 19.6882 50.7886 19.6882 50.586 19.8217C50.3834 19.8884 50.1133 19.9551 49.9106 20.0219C49.708 20.0886 49.5054 20.1554 49.3028 20.2221C49.1002 20.2888 48.9651 20.3556 48.7625 20.4223C48.4248 20.5558 48.1547 20.6893 48.0196 20.8228C47.7494 21.023 47.6819 21.0897 47.6819 21.0897Z" fill="#F5EB16"/>
<path d="M35.3899 29.6324C35.3899 29.6324 36.3354 29.2319 37.7537 28.7648C38.0914 28.6313 38.4966 28.5645 38.9694 28.4311C39.3746 28.3643 39.8474 28.2308 40.3202 28.0974C40.7929 28.0306 41.2657 27.8971 41.7385 27.8304C42.2112 27.7637 42.7515 27.6969 43.2243 27.6302C43.7646 27.5634 44.2374 27.4967 44.7777 27.4967C45.2505 27.3632 45.7908 27.3632 46.2635 27.3632C46.7363 27.3632 47.2091 27.3632 47.6818 27.3632C48.1546 27.3632 48.5598 27.3632 48.8975 27.43C49.3027 27.43 49.6404 27.43 49.9781 27.4967C50.3158 27.5634 50.586 27.5634 50.7886 27.5634C51.2613 27.6302 51.464 27.6302 51.464 27.6302C51.8017 27.6969 52.0718 27.9639 52.0718 28.3643C52.0043 28.698 51.6666 28.965 51.3289 28.8982C51.3289 28.8982 51.3289 28.8982 51.2614 28.8982H51.1938C51.1938 28.8982 50.9237 28.8315 50.5184 28.7648C50.3158 28.698 50.0457 28.698 49.7755 28.6313C49.5054 28.5645 49.1677 28.5645 48.7624 28.4978C48.4247 28.4311 48.0195 28.3643 47.5468 28.3643C47.1415 28.3643 46.6688 28.2976 46.196 28.2976C45.7232 28.2976 45.2505 28.2308 44.7777 28.2308C44.3049 28.2308 43.7646 28.2308 43.2919 28.2308C42.8191 28.2308 42.2788 28.2976 41.806 28.2976C41.3332 28.3643 40.8605 28.3643 40.3877 28.4311C39.9149 28.4978 39.4422 28.5645 39.0369 28.6313C38.6317 28.698 38.2265 28.7648 37.8213 28.8982C36.3354 29.2319 35.3899 29.6324 35.3899 29.6324Z" fill="#6BCCE1"/>
<path d="M42.3464 26.3621C42.3464 26.3621 43.0894 26.0284 44.2375 25.6947C44.8453 25.5613 45.5207 25.361 46.2636 25.2276C46.6013 25.1608 47.0066 25.0941 47.4118 25.0273C47.817 24.9606 48.2223 24.9606 48.6275 24.8939C49.0327 24.8271 49.4379 24.8271 49.8432 24.8271C50.2484 24.8271 50.6536 24.8271 50.9913 24.8271C51.3965 24.8271 51.7342 24.8271 52.0719 24.8271C52.4096 24.8271 52.7473 24.8939 53.085 24.8939C53.3551 24.8939 53.6928 24.8939 53.8955 24.9606C54.1656 24.9606 54.3682 25.0273 54.5033 25.0273C54.841 25.0941 55.0436 25.0941 55.0436 25.0941C55.3138 25.0941 55.4488 25.361 55.4488 25.5613C55.4488 25.8282 55.1787 25.9617 54.9761 25.9617C54.9761 25.9617 54.7734 25.895 54.4358 25.895C54.2331 25.895 54.0305 25.8282 53.8279 25.7615C53.6253 25.6947 53.3551 25.6947 53.0175 25.628C52.7473 25.5613 52.4096 25.5613 52.0719 25.4945C51.7342 25.4945 51.3965 25.4278 50.9913 25.4278C50.6536 25.4278 50.2484 25.4278 49.8432 25.361C49.4379 25.361 49.0327 25.361 48.6275 25.361C48.2223 25.361 47.817 25.361 47.4118 25.4278C47.0066 25.4278 46.6689 25.4945 46.2636 25.5613C45.5207 25.628 44.8453 25.7615 44.2375 25.895C43.0894 26.0284 42.3464 26.3621 42.3464 26.3621Z" fill="#ED2224"/>
<path d="M51.1938 29.4989C51.1938 29.4989 51.3289 29.4989 51.5315 29.4322C51.7342 29.4322 52.0718 29.4322 52.4095 29.3654C52.6121 29.3654 52.8148 29.3654 53.0174 29.3654C53.22 29.3654 53.4226 29.3654 53.6928 29.4322C53.8954 29.4322 54.1655 29.4989 54.3681 29.4989C54.6383 29.4989 54.8409 29.5656 55.1111 29.6324C55.3812 29.6991 55.5838 29.6991 55.854 29.7659C56.0566 29.8326 56.3267 29.8993 56.5294 29.9661C56.732 30.0328 56.9346 30.0996 57.1372 30.1663C57.3398 30.233 57.5424 30.2998 57.6775 30.3665C58.3529 30.6335 58.8257 30.8337 58.8257 30.8337C59.0283 30.9004 59.1633 31.1674 59.0958 31.3676C59.0283 31.5678 58.7581 31.7013 58.5555 31.6346C58.5555 31.6346 58.5555 31.6346 58.488 31.6346H58.4204C58.4204 31.6346 58.0152 31.4343 57.4074 31.1006C57.2723 31.0339 57.0697 30.9004 56.867 30.8337C56.6644 30.7669 56.4618 30.7002 56.2592 30.5667C56.0566 30.5 55.854 30.4333 55.6514 30.2998C55.4487 30.233 55.1786 30.1663 54.976 30.0996C54.7734 30.0328 54.5032 29.9661 54.3006 29.8993C54.098 29.8326 53.8278 29.8326 53.6252 29.7659C53.4226 29.6991 53.22 29.6991 53.0174 29.6324C52.8148 29.6324 52.6121 29.5656 52.4771 29.5656C52.1394 29.5656 51.8017 29.4989 51.5991 29.4989C51.3289 29.4989 51.1938 29.4989 51.1938 29.4989Z" fill="#F5EB16"/>
<path d="M35.2549 31.6346C35.2549 31.6346 36.268 31.7013 37.7538 32.1018C38.159 32.1685 38.4967 32.302 38.9695 32.3687C39.3747 32.5022 39.8475 32.6357 40.2527 32.7692C40.7255 32.9026 41.1982 33.1029 41.671 33.2363C42.1438 33.3698 42.6165 33.57 43.0893 33.7702C43.5621 33.9705 44.0348 34.1707 44.5076 34.3709C44.9804 34.5711 45.3856 34.8381 45.8584 35.0383C46.2636 35.2385 46.6688 35.5055 47.0741 35.7057C47.4793 35.9059 47.817 36.1729 48.1547 36.3731C48.4924 36.5733 48.7625 36.7735 49.0327 36.9738C49.3028 37.174 49.5054 37.3074 49.708 37.4409C50.0457 37.7079 50.2483 37.8414 50.2483 37.8414C50.5185 38.0416 50.586 38.442 50.3834 38.7757C50.1808 39.0427 49.7756 39.1094 49.4379 38.9092C49.4379 38.9092 49.4379 38.9092 49.3703 38.9092C49.3703 38.9092 49.1677 38.7757 48.83 38.442C48.695 38.3085 48.4924 38.1083 48.2222 37.9081C48.0196 37.7079 47.7494 37.5077 47.4117 37.3074C47.1416 37.1072 46.8039 36.8403 46.4662 36.5733C46.1285 36.3064 45.7233 36.0394 45.3856 35.8392C44.9804 35.5722 44.5751 35.3053 44.1699 35.105C43.7647 34.8381 43.2919 34.6379 42.8867 34.3709C42.4139 34.1707 42.0087 33.9037 41.5359 33.7035C41.0632 33.5033 40.6579 33.3031 40.1852 33.1029C39.7799 32.9026 39.3072 32.7692 38.9019 32.6357C38.4967 32.5022 38.0915 32.3687 37.7538 32.2352C36.2004 31.8348 35.2549 31.6346 35.2549 31.6346Z" fill="#F5EB16"/>
<path d="M42.8867 32.302C42.8867 32.302 43.6972 32.3687 44.8453 32.6357C45.4532 32.7691 46.1286 32.9694 46.8039 33.2363C47.1416 33.3698 47.5469 33.5033 47.8845 33.6368C48.2898 33.7702 48.6275 33.9705 48.9651 34.1039C49.3028 34.2374 49.7081 34.4376 50.0458 34.6379C50.3834 34.8381 50.7211 35.0383 51.0588 35.1718C51.3965 35.372 51.6667 35.5722 52.0044 35.7057C52.2745 35.9059 52.5447 36.1061 52.8148 36.2396C53.085 36.4398 53.2876 36.5733 53.4902 36.7068C53.6928 36.8403 53.8279 36.9737 54.0305 37.1072C54.3007 37.3074 54.5033 37.4409 54.5033 37.4409C54.7059 37.5744 54.7059 37.8414 54.5708 38.0416C54.4357 38.2418 54.1656 38.2418 53.963 38.1083C53.963 38.1083 53.8279 37.9748 53.5577 37.7746C53.4227 37.6411 53.2876 37.5077 53.085 37.3742C52.8824 37.2407 52.6797 37.0405 52.4771 36.907C52.207 36.7068 52.0044 36.5066 51.7342 36.3063C51.4641 36.1061 51.1939 35.9059 50.8562 35.7057C50.5185 35.5055 50.2484 35.3053 49.9107 35.105C49.573 34.9048 49.2353 34.7046 48.8976 34.5044C48.5599 34.3042 48.2222 34.1039 47.817 33.9705C47.4793 33.837 47.1416 33.6368 46.7364 33.5033C46.061 33.2363 45.3856 32.9694 44.8453 32.8359C43.6972 32.3687 42.8867 32.302 42.8867 32.302Z" fill="#6BCCE1"/>
<path d="M47.5469 39.5766C47.5469 39.5766 47.682 39.6433 47.817 39.71C48.0196 39.7768 48.2898 39.9103 48.5599 40.1105C48.695 40.1772 48.8976 40.3107 49.0327 40.3774C49.2353 40.5109 49.3704 40.5777 49.573 40.7111C49.7756 40.8446 49.9782 40.9781 50.1133 41.1116C50.3159 41.2451 50.451 41.4453 50.6536 41.5788C50.8562 41.7122 50.9913 41.9125 51.1939 42.0459C51.329 42.2462 51.5316 42.3796 51.6667 42.5131C51.8018 42.6466 52.0044 42.8468 52.1395 42.9803C52.2745 43.1138 52.4096 43.314 52.5447 43.4475C53.0175 43.9814 53.2876 44.3818 53.2876 44.3818C53.4227 44.582 53.4227 44.849 53.2201 44.9825C53.0175 45.116 52.7473 45.116 52.6122 44.9157C52.6122 44.9157 52.6122 44.9157 52.6122 44.849V44.7823C52.6122 44.7823 52.3421 44.3818 52.0044 43.7812C51.9369 43.6477 51.8018 43.4475 51.6667 43.314C51.5316 43.1805 51.3965 42.9803 51.2615 42.8468C51.1264 42.6466 50.9913 42.5131 50.8562 42.3129C50.7212 42.1127 50.5186 41.9792 50.3835 41.779C50.2484 41.6455 50.0458 41.4453 49.9107 41.3118C49.7081 41.1783 49.573 40.9781 49.4379 40.8446C49.3029 40.7111 49.1003 40.5777 48.9652 40.4442C48.8301 40.3107 48.6275 40.1772 48.4924 40.1105C48.2223 39.9103 47.9521 39.71 47.7495 39.6433C47.6819 39.6433 47.5469 39.5766 47.5469 39.5766Z" fill="#6BCCE1"/>
<path d="M34.1067 33.3031C34.1067 33.3031 34.9171 33.9037 35.9978 34.9048C36.2679 35.1718 36.5381 35.4387 36.8758 35.7724C37.1459 36.1061 37.4836 36.4398 37.8213 36.7735C38.4291 37.4409 39.1045 38.2418 39.7124 39.0427C40.05 39.4431 40.3202 39.8435 40.5903 40.244C40.8605 40.6444 41.1307 41.0449 41.4008 41.4453C41.671 41.8457 41.8736 42.2462 42.0762 42.6466C42.2788 43.0471 42.4814 43.3807 42.684 43.7144C42.8866 44.0481 43.0217 44.3818 43.1568 44.6488C43.2919 44.9158 43.3594 45.1827 43.4945 45.3829C43.6971 45.7834 43.7646 46.0503 43.7646 46.0503C43.8997 46.384 43.7646 46.7845 43.427 46.9179C43.0893 47.0514 42.684 46.9179 42.549 46.5843C42.549 46.5843 42.549 46.5842 42.549 46.5175V46.4508C42.549 46.4508 42.4814 46.2506 42.3463 45.7834C42.2788 45.5832 42.2113 45.3162 42.0762 45.0492C42.0086 44.7823 41.806 44.4486 41.671 44.1149C41.5359 43.7812 41.4008 43.3807 41.1982 43.0471C40.9956 42.6466 40.8605 42.2462 40.5903 41.8457C40.3877 41.4453 40.1851 40.9781 39.915 40.5777C39.6448 40.1772 39.4422 39.7101 39.172 39.3096C38.6317 38.442 38.0914 37.6411 37.4836 36.907C37.2134 36.5066 36.8758 36.1729 36.6731 35.8392C36.403 35.5055 36.1328 35.1718 35.8627 34.9048C34.8496 33.9705 34.1067 33.3031 34.1067 33.3031Z" fill="#F5EB16"/>
<path d="M40.3203 37.7079C40.3203 37.7079 40.9957 38.1751 41.8737 38.9759C42.2789 39.3764 42.8192 39.9103 43.292 40.4442C43.5621 40.7112 43.7648 41.0449 44.0349 41.3118C44.3051 41.6455 44.5077 41.9125 44.7778 42.2462C44.9804 42.5799 45.2506 42.9136 45.4532 43.2473C45.6558 43.581 45.8584 43.9147 46.0611 44.2484C46.2637 44.5821 46.3987 44.9158 46.6014 45.1827C46.804 45.4497 46.939 45.7834 47.0741 46.0503C47.2092 46.3173 47.3443 46.5843 47.4118 46.7845C47.4794 46.9847 47.6144 47.1849 47.682 47.3851C47.817 47.7188 47.8846 47.919 47.8846 47.919C47.9521 48.1193 47.8846 48.3862 47.682 48.453C47.4794 48.5197 47.2092 48.453 47.1417 48.2527C47.1417 48.2527 47.0741 48.0525 46.939 47.7188C46.8715 47.5853 46.804 47.3851 46.7364 47.1182C46.6689 46.918 46.5338 46.651 46.4663 46.384C46.3312 46.1171 46.2637 45.7834 46.0611 45.5164C45.926 45.1827 45.7909 44.9158 45.5883 44.5821C45.3857 44.2484 45.2506 43.9147 45.048 43.581C44.8454 43.2473 44.6428 42.9136 44.4401 42.5799C44.2375 42.2462 44.0349 41.9125 43.7648 41.5788C43.5621 41.2451 43.292 40.9781 43.0894 40.6444C42.6166 40.0438 42.2114 39.5099 41.8062 39.1094C40.9282 38.1751 40.3203 37.7079 40.3203 37.7079Z" fill="#6BCCE1"/>
<path d="M40.658 46.3173C40.658 46.3173 40.7255 46.384 40.8606 46.5843C40.9956 46.7177 41.1307 46.9847 41.3333 47.3184C41.4009 47.4519 41.536 47.6521 41.6035 47.8523C41.671 48.0525 41.8061 48.2527 41.8736 48.453C41.9412 48.6532 42.0763 48.8534 42.1438 49.0536C42.2789 49.2538 42.2789 49.5208 42.4139 49.721C42.4815 49.9212 42.549 50.1882 42.6841 50.3884C42.7516 50.5886 42.8192 50.8556 42.8867 51.0558C42.9543 51.256 43.0218 51.4562 43.0218 51.6565C43.0893 51.8567 43.0893 52.0569 43.1569 52.2571C43.2919 52.9913 43.3595 53.4584 43.3595 53.4584C43.427 53.7254 43.2244 53.9256 43.0218 53.9256C42.7516 53.9923 42.549 53.7921 42.549 53.5919C42.549 53.5919 42.549 53.5919 42.549 53.5252V53.4584C42.549 53.4584 42.549 52.9913 42.4815 52.3239C42.4815 52.1236 42.4815 51.9902 42.4139 51.7899C42.4139 51.5897 42.3464 51.3895 42.3464 51.1893C42.3464 50.9891 42.2789 50.7221 42.2789 50.5219C42.2113 50.3217 42.1438 50.0547 42.1438 49.8545C42.0763 49.6543 42.0763 49.3873 41.9412 49.1871C41.8736 48.9869 41.8061 48.7199 41.7386 48.5197C41.671 48.3195 41.6035 48.1193 41.536 47.919C41.4684 47.7188 41.4009 47.5853 41.3333 47.3851C41.1983 47.0514 41.0632 46.7845 40.9281 46.651C40.7255 46.4508 40.658 46.3173 40.658 46.3173Z" fill="#6BCCE1"/>
<path d="M32.2156 34.1707C32.2156 34.1707 32.6208 35.105 33.026 36.5066C33.1611 36.8403 33.2286 37.2407 33.3637 37.7079C33.4313 38.1083 33.5663 38.5755 33.6339 39.0427C33.8365 39.977 33.9716 40.9781 34.1066 41.9792C34.1742 42.5131 34.1742 42.9803 34.2417 43.5142C34.3093 43.9814 34.3093 44.5153 34.3093 44.9825C34.3093 45.4497 34.3093 45.9169 34.3093 46.384C34.3093 46.8512 34.3093 47.2516 34.2417 47.5853C34.2417 47.9858 34.1742 48.3195 34.1742 48.6532C34.1066 48.9869 34.1066 49.2538 34.1066 49.4541C34.0391 49.9212 34.0391 50.1214 34.0391 50.1214C33.9716 50.4551 33.7014 50.7221 33.2962 50.7221C32.9585 50.6554 32.6883 50.3884 32.6883 49.988C32.6883 49.988 32.6883 49.988 32.6883 49.9212V49.8545C32.6883 49.8545 32.7559 49.5875 32.8234 49.1871C32.891 48.9869 32.891 48.7199 32.9585 48.453C33.026 48.186 33.026 47.8523 33.0936 47.4519C33.1611 47.1182 33.2286 46.7177 33.2286 46.2506C33.2286 45.8501 33.2962 45.3829 33.3637 44.9158C33.3637 44.4486 33.4313 43.9814 33.4313 43.5142C33.4313 43.047 33.4313 42.5131 33.4313 42.046C33.4313 41.0449 33.2962 40.0438 33.2286 39.1094C33.1611 38.6422 33.0936 38.1751 33.026 37.7746C32.9585 37.3742 32.891 36.9737 32.8234 36.5733C32.5533 35.1718 32.2156 34.1707 32.2156 34.1707Z" fill="#F5EB16"/>
<path d="M35.3899 41.1116C35.3899 41.1116 35.7276 41.8457 36.0653 42.9803C36.2004 43.581 36.403 44.2484 36.538 44.9825C36.6056 45.3162 36.6731 45.7166 36.7407 46.1171C36.8082 46.5175 36.8082 46.918 36.8757 47.3184C36.9433 47.7188 36.9433 48.1193 36.9433 48.5197C36.9433 48.9201 36.9433 49.3206 36.9433 49.6543C36.9433 50.0547 36.9433 50.3884 36.9433 50.7221C36.9433 51.0558 36.8757 51.3895 36.8757 51.7232C36.8757 51.9902 36.8757 52.3239 36.8082 52.5241C36.8082 52.791 36.7407 52.9913 36.7407 53.1247C36.6731 53.4584 36.6731 53.6586 36.6731 53.6586C36.6731 53.9256 36.403 54.0591 36.2003 54.0591C35.9302 54.0591 35.7951 53.7921 35.7951 53.5919C35.7951 53.5919 35.8627 53.3917 35.8627 53.058C35.8627 52.8578 35.9302 52.6576 35.9977 52.4573C36.0653 52.2571 36.0653 51.9902 36.1328 51.6565C36.2003 51.3895 36.2003 51.0558 36.2679 50.7221C36.2679 50.3884 36.3354 50.0547 36.3354 49.6543C36.3354 49.3206 36.3354 48.9201 36.403 48.5197C36.403 48.1193 36.403 47.7188 36.403 47.3184C36.403 46.918 36.403 46.5175 36.3354 46.1171C36.3354 45.7166 36.2679 45.3829 36.2003 44.9825C36.1328 44.2484 35.9977 43.581 35.8627 42.9803C35.66 41.8457 35.3899 41.1116 35.3899 41.1116Z" fill="#6BCCE1"/>
<path d="M31.3377 48.7867C31.3377 48.7867 31.3377 48.9201 31.4053 49.1203C31.4053 49.3206 31.4053 49.6543 31.4728 49.988C31.4728 50.1882 31.4728 50.3884 31.4728 50.5886C31.4728 50.7888 31.4728 50.9891 31.4053 51.256C31.4053 51.4562 31.3377 51.7232 31.3377 51.9234C31.3377 52.1904 31.2702 52.3906 31.2026 52.6576C31.1351 52.9245 31.1351 53.1247 31.0676 53.3917C31 53.5919 30.9325 53.8589 30.865 54.0591C30.7974 54.2593 30.7299 54.4595 30.6623 54.6597C30.5948 54.86 30.5273 55.0602 30.4597 55.1937C30.1896 55.861 29.987 56.3282 29.987 56.3282C29.9194 56.5284 29.6493 56.6619 29.4467 56.5952C29.244 56.5284 29.109 56.2615 29.1765 56.0613C29.1765 56.0613 29.1765 56.0613 29.1765 55.9945V55.9278C29.1765 55.9278 29.3791 55.5274 29.7168 54.9267C29.7843 54.7932 29.9194 54.593 29.987 54.3928C30.0545 54.1926 30.122 53.9923 30.2571 53.7921C30.3247 53.5919 30.3922 53.3917 30.5273 53.1915C30.5948 52.9912 30.6623 52.7243 30.7299 52.5241C30.7974 52.3238 30.865 52.0569 30.9325 51.8567C31 51.6565 31 51.3895 31.0676 51.1893C31.1351 50.9891 31.1351 50.7888 31.2026 50.5886C31.2026 50.3884 31.2702 50.1882 31.2702 50.0547C31.2702 49.721 31.3377 49.3873 31.3377 49.1871C31.3377 48.9201 31.3377 48.7867 31.3377 48.7867Z" fill="#6BCCE1"/>
<path d="M33.7014 26.896C33.7014 26.896 34.1742 25.5613 35.1873 23.7593C35.4574 23.2921 35.7276 22.8249 36.0653 22.291C36.4029 21.7571 36.7406 21.2232 37.0783 20.6893C37.2809 20.4223 37.4836 20.1553 37.6186 19.8884C37.8212 19.6214 38.0239 19.3545 38.2265 19.0208C38.6317 18.4201 39.1045 17.8862 39.5097 17.3523C39.9149 16.8184 40.4552 16.2844 40.8605 15.7505C41.3332 15.2166 41.806 14.7494 42.2788 14.2823C42.7515 13.8151 43.2243 13.3479 43.6295 12.9475C44.0347 12.547 44.5075 12.1466 44.9127 11.8129C45.318 11.4792 45.6557 11.1455 46.0609 10.8785C46.3986 10.6116 46.7363 10.4114 46.9389 10.2111C47.4117 9.81071 47.7493 9.61049 47.7493 9.61049C48.0195 9.41027 48.4247 9.41027 48.6949 9.74397C48.8975 10.0109 48.8975 10.4114 48.5598 10.6783C48.5598 10.6783 48.2896 10.8785 47.7493 11.2122C47.4792 11.4125 47.209 11.6127 46.8714 11.8129C46.5337 12.0799 46.1284 12.3468 45.7232 12.6805C45.318 13.0142 44.8452 13.3479 44.3724 13.7483C43.8997 14.1488 43.4269 14.5492 42.9541 14.9497C42.4814 15.4168 41.9411 15.8173 41.4683 16.3512C40.9955 16.8184 40.4552 17.3523 40.05 17.8862C39.5772 18.4201 39.1045 18.954 38.6992 19.4879C38.4966 19.7549 38.294 20.0219 38.0239 20.2888C37.8212 20.5558 37.6186 20.8227 37.416 21.0897C37.0108 21.6236 36.6731 22.1575 36.3354 22.6247C35.9977 23.1586 35.66 23.6258 35.3899 24.0262C34.3093 25.628 33.7014 26.896 33.7014 26.896Z" fill="#F5EB16"/>
<path d="M35.3225 28.4311C35.3225 28.4311 36.4031 27.5634 38.2266 26.4289C38.6994 26.1619 39.1722 25.895 39.7125 25.5613C40.2528 25.2943 40.7931 24.9606 41.4009 24.6936C41.6711 24.5602 42.0088 24.4267 42.2789 24.2265C42.6166 24.093 42.8868 23.9595 43.2245 23.826C43.8323 23.5591 44.5077 23.2921 45.1831 23.0252C45.8585 22.7582 46.5338 22.558 47.2092 22.291C47.8846 22.0908 48.56 21.8906 49.1678 21.6904C49.7757 21.4901 50.451 21.3567 51.0589 21.2232C51.6667 21.0897 52.207 20.9562 52.7473 20.8895C53.2877 20.8227 53.7604 20.6893 54.1656 20.6225C54.5709 20.5558 54.9761 20.4891 55.3138 20.4891C55.9216 20.4223 56.2593 20.3556 56.2593 20.3556C56.597 20.2888 56.9347 20.5558 57.0022 20.8895C57.0698 21.2232 56.7996 21.5569 56.4619 21.6236C56.4619 21.6236 56.4619 21.6236 56.3944 21.6236H56.3269C56.3269 21.6236 55.9892 21.6236 55.3813 21.6904C55.0436 21.6904 54.706 21.7571 54.3007 21.7571C53.8955 21.7571 53.4227 21.8906 52.8824 21.9573C52.3421 22.0241 51.8018 22.0908 51.194 22.2243C50.5861 22.3578 49.9783 22.4245 49.3704 22.558C48.7626 22.6915 48.0872 22.8249 47.4118 23.0252C46.7365 23.2254 46.0611 23.3589 45.3857 23.6258C44.7103 23.826 44.0349 24.0263 43.4271 24.2932C43.0894 24.4267 42.7517 24.5602 42.4816 24.6269C42.1439 24.7604 41.8737 24.8939 41.536 25.0273C40.9282 25.2943 40.3879 25.5613 39.78 25.8282C39.2397 26.0952 38.6994 26.3621 38.2942 26.6291C36.4707 27.6302 35.3225 28.4311 35.3225 28.4311Z" fill="#6BCCE1"/>
<path d="M35.9302 30.5C35.9302 30.5 37.3485 30.2998 39.4422 30.233C39.9825 30.233 40.5228 30.233 41.1306 30.233C41.7385 30.233 42.4138 30.233 43.0217 30.2998C43.3594 30.2998 43.6971 30.3665 44.0347 30.3665C44.3724 30.4333 44.7101 30.4333 45.0478 30.5C45.7232 30.5667 46.4661 30.7002 47.1415 30.7669C47.8169 30.8337 48.5598 31.0339 49.2352 31.1674C49.9106 31.3009 50.5859 31.5011 51.2613 31.6346C51.9367 31.768 52.5446 31.9683 53.1524 32.1685C53.7602 32.302 54.3005 32.5022 54.7733 32.7024C55.2461 32.9026 55.7864 33.0361 56.1241 33.1696C56.5293 33.3031 56.867 33.5033 57.2047 33.57C57.8125 33.7702 58.1502 33.9037 58.1502 33.9037C58.4879 34.0372 58.623 34.4376 58.4879 34.7713C58.3528 35.105 57.9476 35.2385 57.6099 35.105H57.5424C57.5424 35.105 57.2047 34.9715 56.6644 34.7046C56.3942 34.5711 56.0565 34.4376 55.6513 34.2374C55.2461 34.0372 54.8409 33.9037 54.3681 33.7035C53.8953 33.5033 53.355 33.3031 52.8147 33.1028C52.2744 32.9026 51.6666 32.7024 50.9912 32.5022C50.3833 32.302 49.708 32.1017 49.0326 31.9683C48.3572 31.8348 47.6818 31.6346 47.0064 31.5011C46.331 31.3676 45.6557 31.2341 44.9803 31.1006C44.6426 31.0339 44.3049 30.9672 43.9672 30.9672C43.6295 30.9004 43.2918 30.9004 42.9541 30.8337C42.2788 30.767 41.6709 30.7002 41.0631 30.6335C40.4552 30.6335 39.9149 30.5667 39.3746 30.5667C37.3485 30.3665 35.9302 30.5 35.9302 30.5Z" fill="#ED2224"/>
<path d="M35.3899 32.6357C35.3899 32.6357 36.7407 33.1696 38.5642 34.1707C39.0369 34.4376 39.5097 34.7046 40.05 35.0383C40.5903 35.372 41.1306 35.7057 41.6709 36.0394C41.9411 36.2396 42.2112 36.4398 42.4814 36.5733C42.7515 36.7735 43.0217 36.9737 43.2919 37.1739C43.8322 37.5744 44.44 38.0416 44.9803 38.442C45.5206 38.8424 46.0609 39.3763 46.6012 39.7768C47.1415 40.244 47.6143 40.7111 48.0871 41.1783C48.5598 41.6455 49.0326 42.1127 49.4378 42.5131C49.843 42.9135 50.2483 43.3807 50.586 43.7812C50.9237 44.1816 51.2614 44.5153 51.5315 44.9157C51.8017 45.2494 52.0043 45.5831 52.2069 45.7833C52.6121 46.2505 52.8147 46.5842 52.8147 46.5842C53.0173 46.8512 53.0173 47.2516 52.6797 47.5186C52.4095 47.7188 52.0043 47.7188 51.7341 47.3851C51.7341 47.3851 51.5315 47.1181 51.1938 46.5842C50.9912 46.3173 50.7886 46.0503 50.586 45.7166C50.3158 45.3829 50.0457 44.9825 49.708 44.582C49.3703 44.1816 49.0326 43.7144 48.6274 43.2472C48.2221 42.7801 47.8169 42.3129 47.4117 41.8457C46.9389 41.3785 46.5337 40.8446 45.9934 40.3774C45.5206 39.9103 44.9803 39.3764 44.44 38.9759C43.8997 38.5087 43.4269 38.0416 42.8191 37.6411C42.5489 37.4409 42.2788 37.2407 42.0086 36.9737C41.7385 36.7735 41.4683 36.5733 41.1982 36.3731C40.6579 35.9726 40.1176 35.6389 39.6448 35.3052C39.1045 34.9715 38.6993 34.6378 38.2265 34.3709C36.7407 33.2363 35.3899 32.6357 35.3899 32.6357Z" fill="#ED2224"/>
<path d="M33.9041 34.2374C33.9041 34.2374 34.782 35.3053 35.9302 37.1072C36.2003 37.5744 36.4705 38.0416 36.8082 38.5755C37.0783 39.1094 37.416 39.6433 37.6862 40.244C37.8213 40.5109 37.9563 40.8446 38.159 41.1783C38.294 41.512 38.4291 41.779 38.5642 42.1127C38.8343 42.7134 39.1045 43.3808 39.3746 44.0481C39.6448 44.7155 39.8474 45.3829 40.1176 46.0503C40.3202 46.7177 40.5228 47.3851 40.7254 47.9858C40.928 48.5864 41.0631 49.2538 41.1982 49.8545C41.3332 50.4551 41.4683 50.9891 41.5359 51.523C41.6034 52.0569 41.7385 52.5241 41.806 52.9245C41.8736 53.325 41.9411 53.7254 41.9411 54.0591C42.0086 54.6597 42.0762 54.9934 42.0762 54.9934C42.1437 55.3271 41.8736 55.6608 41.5359 55.7276C41.1982 55.7943 40.8605 55.5274 40.7929 55.1937C40.7929 55.1937 40.7929 55.1937 40.7929 55.1269V55.0602C40.7929 55.0602 40.7929 54.7265 40.7254 54.1258C40.7254 53.7921 40.6579 53.4584 40.6579 53.058C40.6579 52.6576 40.5228 52.1904 40.4553 51.6565C40.3877 51.1225 40.3202 50.5886 40.1851 49.988C40.05 49.3873 39.9825 48.7867 39.8474 48.186C39.7123 47.5853 39.5773 46.918 39.3746 46.2506C39.172 45.5832 39.037 44.9158 38.7668 44.2484C38.5642 43.581 38.3616 42.9136 38.0914 42.3129C37.9563 41.9792 37.8213 41.6455 37.7537 41.3786C37.6187 41.0449 37.4836 40.7779 37.3485 40.4442C37.0783 39.8436 36.8082 39.2429 36.538 38.709C36.2679 38.1751 35.9977 37.6411 35.7951 37.174C34.7145 35.372 33.9041 34.2374 33.9041 34.2374Z" fill="#ED2224"/>
<path d="M30.8649 26.6291C30.8649 26.6291 30.6623 25.628 30.2571 24.2265C30.122 23.8928 29.9869 23.4923 29.8519 23.0919C29.7168 22.6915 29.5142 22.291 29.3791 21.8239C29.1765 21.3567 29.0414 20.9562 28.7713 20.4891C28.5686 20.0219 28.366 19.6215 28.0959 19.1543C27.8933 18.6871 27.6231 18.2867 27.353 17.8195C27.0828 17.419 26.8126 17.0186 26.61 16.6182C26.3399 16.2177 26.0697 15.884 25.8671 15.4836C25.597 15.1499 25.3943 14.8162 25.1242 14.5492C24.9216 14.2823 24.719 14.0153 24.5163 13.7484C24.3137 13.5481 24.1111 13.3479 23.976 13.1477C23.7059 12.814 23.5033 12.6138 23.5033 12.6138C23.2331 12.3468 23.3007 11.9464 23.5708 11.6794C23.841 11.4125 24.2462 11.4792 24.5163 11.7462C24.5163 11.7462 24.5163 11.7462 24.5163 11.8129C24.5163 11.8129 24.6514 12.0131 24.9216 12.4136C25.0567 12.6138 25.1917 12.814 25.3943 13.081C25.597 13.3479 25.7996 13.6149 26.0022 13.9486C26.2048 14.2823 26.475 14.616 26.6776 15.0164C26.8802 15.4169 27.1503 15.8173 27.353 16.2177C27.5556 16.6182 27.8257 17.0853 28.0283 17.5525C28.2309 18.0197 28.5011 18.4869 28.6362 18.9541C28.8388 19.4212 29.0414 19.8884 29.1765 20.3556C29.3791 20.8228 29.5142 21.2899 29.6492 21.7571C29.7843 22.2243 29.9194 22.6247 30.0545 23.0919C30.1896 23.4923 30.2571 23.8928 30.3246 24.2932C30.7299 25.628 30.8649 26.6291 30.8649 26.6291Z" fill="#ED2224"/>
<path d="M30.1895 18.954C30.1895 18.954 30.0545 18.1532 29.7168 17.0186C29.5141 16.4847 29.3115 15.8173 29.0414 15.1499C28.9063 14.8162 28.7712 14.4825 28.5686 14.0821C28.4335 13.7484 28.2309 13.4147 28.0283 13.0142C27.8257 12.6805 27.6231 12.3468 27.4205 12.0131C27.2178 11.6794 27.0152 11.3457 26.8126 11.0788C26.61 10.7451 26.4074 10.4781 26.2048 10.2112C26.0022 9.9442 25.7996 9.67724 25.5969 9.47702C25.3943 9.2768 25.2592 9.00984 25.1242 8.87636C24.9891 8.67614 24.854 8.54266 24.7189 8.40918C24.5163 8.14223 24.3812 8.00875 24.3812 8.00875C24.2462 7.80853 24.2462 7.54157 24.4488 7.40809C24.6514 7.27461 24.9216 7.27461 25.0566 7.47483C25.0566 7.47483 25.1917 7.60831 25.3943 7.94201C25.5294 8.07549 25.5969 8.2757 25.7996 8.47592C25.9346 8.67614 26.0697 8.87636 26.2723 9.14332C26.4074 9.41028 26.61 9.67724 26.8126 9.9442C27.0152 10.2112 27.2179 10.5449 27.3529 10.8785C27.5555 11.2122 27.6906 11.5459 27.8932 11.8796C28.0958 12.2133 28.2309 12.6138 28.4335 12.9475C28.5686 13.3479 28.7712 13.6816 28.9063 14.0153C29.0414 14.349 29.1765 14.7494 29.3115 15.0831C29.5817 15.8173 29.7168 16.4847 29.9194 17.0186C30.122 18.1532 30.1895 18.954 30.1895 18.954Z" fill="#6BCCE1"/>
<path d="M22.7603 14.2823C22.7603 14.2823 22.6927 14.1488 22.6252 14.0153C22.4901 13.8151 22.355 13.6149 22.1524 13.2812C22.0173 13.1477 21.9498 13.0142 21.8147 12.814C21.6796 12.6805 21.5446 12.4803 21.4095 12.3468C21.2744 12.2134 21.1393 12.0131 20.9367 11.8797C20.8017 11.6794 20.599 11.546 20.464 11.4125C20.2613 11.279 20.1263 11.0788 19.9237 10.9453C19.721 10.8118 19.586 10.6783 19.3834 10.5449C19.1807 10.4114 19.0457 10.2779 18.9106 10.1444C18.7755 10.0109 18.5729 9.94421 18.4378 9.81073C17.83 9.41029 17.4247 9.21007 17.4247 9.21007H17.3572C17.1546 9.07659 17.0871 8.80964 17.2221 8.60942C17.3572 8.4092 17.6274 8.34246 17.83 8.47594C17.83 8.47594 17.83 8.47594 17.8975 8.47594C17.8975 8.47594 18.3027 8.80964 18.843 9.21007C18.9781 9.34355 19.1807 9.41029 19.3158 9.61051C19.4509 9.74399 19.6535 9.87747 19.7886 10.0777C19.9237 10.2112 20.1263 10.4114 20.2613 10.5449C20.3964 10.7451 20.599 10.8786 20.7341 11.0788C20.8692 11.279 21.0718 11.4125 21.2069 11.6127C21.342 11.8129 21.477 12.0131 21.6121 12.1466C21.7472 12.3468 21.8823 12.4803 21.9498 12.6805C22.0849 12.8808 22.1524 13.0142 22.22 13.1477C22.4226 13.4814 22.5576 13.7484 22.6252 13.8818C22.7603 14.2155 22.7603 14.2823 22.7603 14.2823Z" fill="#6BCCE1"/>
<path d="M29.1089 27.7637C29.1089 27.7637 28.4335 26.9628 27.3529 25.9617C27.0828 25.6947 26.7451 25.4278 26.4074 25.1608C26.0697 24.8939 25.732 24.5602 25.3268 24.2932C24.9215 24.0262 24.5839 23.6926 24.1786 23.4256C23.7734 23.1586 23.3682 22.8917 22.9629 22.6247C22.5577 22.3578 22.0849 22.0908 21.6797 21.8238C21.2745 21.5569 20.8017 21.3567 20.3965 21.1564C19.9913 20.9562 19.586 20.756 19.1808 20.5558C18.7756 20.3556 18.4379 20.2221 18.1002 20.0886C17.7625 19.9551 17.4248 19.8217 17.1547 19.6882C16.8845 19.6214 16.6144 19.488 16.4117 19.4212C16.0065 19.2877 15.7364 19.221 15.7364 19.221C15.3987 19.0875 15.1961 18.7538 15.3311 18.4201C15.4662 18.0864 15.8039 17.8862 16.1416 18.0197C16.1416 18.0197 16.1416 18.0197 16.2091 18.0197C16.2091 18.0197 16.4793 18.1532 16.8845 18.2866C17.0871 18.3534 17.3573 18.4869 17.6274 18.6203C17.8976 18.7538 18.2353 18.8873 18.573 19.0875C18.9106 19.2877 19.3159 19.4212 19.6536 19.6882C20.0588 19.8884 20.464 20.1554 20.8693 20.3556C21.2745 20.6225 21.6797 20.8895 22.0849 21.1564C22.4902 21.4234 22.8954 21.7571 23.3006 22.0241C23.7059 22.3578 24.1111 22.6247 24.5163 22.9584C24.9215 23.2921 25.2592 23.6258 25.6645 23.8928C26.0022 24.2265 26.3398 24.5602 26.6775 24.8271C27.0152 25.1608 27.2854 25.4278 27.5555 25.6947C28.5686 26.9628 29.1089 27.7637 29.1089 27.7637Z" fill="#ED2224"/>
<path d="M24.719 21.4234C24.719 21.4234 24.2462 20.8228 23.3007 20.0219C22.8279 19.6214 22.3552 19.1543 21.7473 18.7538C21.4772 18.5536 21.1395 18.2866 20.8018 18.0864C20.4641 17.8862 20.1264 17.686 19.7887 17.419C19.451 17.2188 19.1133 17.0186 18.7756 16.8184C18.438 16.6182 18.1003 16.4847 17.7626 16.2845C17.4249 16.151 17.0872 15.9508 16.817 15.8173C16.4793 15.6838 16.2092 15.5503 15.939 15.4168C15.6689 15.2834 15.3987 15.2166 15.1961 15.1499C14.9935 15.0831 14.7909 15.0164 14.5883 14.9497C14.2506 14.8162 14.048 14.7495 14.048 14.7495C13.8454 14.6827 13.7103 14.4158 13.7778 14.2155C13.8454 14.0153 14.1155 13.8818 14.3181 13.9486C14.3181 13.9486 14.5207 14.0153 14.8584 14.1488C14.9935 14.2155 15.1961 14.2823 15.4663 14.4158C15.6689 14.4825 15.939 14.616 16.2092 14.7495C16.4793 14.8829 16.817 15.0164 17.0872 15.2166C17.4249 15.4168 17.695 15.5503 18.0327 15.7505C18.3704 15.9508 18.7081 16.151 19.0458 16.3512C19.3835 16.5514 19.7212 16.8184 20.0589 17.0186C20.3966 17.2856 20.7343 17.4858 21.0044 17.7527C21.3421 18.0197 21.6122 18.2199 21.8824 18.4869C22.4227 18.954 22.963 19.488 23.3682 19.8884C24.2462 20.8228 24.719 21.4234 24.719 21.4234Z" fill="#6BCCE1"/>
<path d="M15.9389 21.0897C15.9389 21.0897 15.8714 21.023 15.6688 20.9562C15.4662 20.8228 15.196 20.756 14.9259 20.5558C14.7908 20.4891 14.5882 20.4223 14.3856 20.3556C14.1829 20.2888 13.9803 20.2221 13.7777 20.1554C13.5751 20.0886 13.3725 20.0219 13.1023 19.9551C12.8997 19.8884 12.6296 19.8217 12.427 19.7549C12.2243 19.6882 11.9542 19.6214 11.7516 19.6214C11.549 19.6214 11.2788 19.5547 11.0762 19.5547C10.8736 19.5547 10.671 19.488 10.4683 19.488C10.2657 19.4212 10.0631 19.488 9.92804 19.4212C9.25266 19.4212 8.7799 19.3545 8.7799 19.3545H8.71236C8.4422 19.3545 8.30713 19.1543 8.30713 18.8873C8.30713 18.6204 8.50974 18.4869 8.7799 18.4869C8.7799 18.4869 8.7799 18.4869 8.84743 18.4869C8.84743 18.4869 9.3202 18.5536 10.0631 18.6871C10.2657 18.7538 10.4683 18.7538 10.671 18.8206C10.8736 18.8873 11.0762 18.9541 11.2788 18.9541C11.4814 19.0208 11.7516 19.0875 11.9542 19.1543C12.1568 19.221 12.427 19.2878 12.6296 19.4212C12.8322 19.488 13.1023 19.5547 13.305 19.6882C13.5076 19.7549 13.7102 19.8884 13.9128 19.9551C14.1154 20.0219 14.318 20.1554 14.5206 20.2221C14.7233 20.2888 14.8583 20.4223 15.0609 20.4891C15.3986 20.6893 15.6012 20.8228 15.8039 20.9562C15.8714 21.023 15.9389 21.0897 15.9389 21.0897Z" fill="#6BCCE1"/>
<path d="M28.2309 29.6324C28.2309 29.6324 27.2854 29.2987 25.7996 28.965C25.4619 28.8982 25.0566 28.8315 24.5839 28.698C24.1786 28.6313 23.7059 28.5645 23.2331 28.4978C22.7603 28.4311 22.2876 28.3643 21.8148 28.3643C21.342 28.2976 20.8017 28.2976 20.329 28.2976C19.8562 28.2308 19.3159 28.2976 18.8431 28.2976C18.3704 28.2976 17.8976 28.2976 17.4248 28.3643C16.9521 28.3643 16.4793 28.4311 16.0741 28.4311C15.6688 28.4311 15.2636 28.4978 14.8584 28.5645C14.5207 28.6313 14.1155 28.6313 13.8453 28.698C13.5752 28.7648 13.305 28.8315 13.1024 28.8315C12.6972 28.8982 12.427 28.965 12.427 28.965H12.3595C12.0218 29.0317 11.6841 28.8315 11.6166 28.4311C11.549 28.0974 11.7516 27.7637 12.1569 27.6969H12.2244C12.2244 27.6969 12.4946 27.6969 12.8998 27.6302C13.1024 27.6302 13.3725 27.5634 13.7102 27.5634C14.0479 27.4967 14.3856 27.4967 14.7908 27.4967C15.1961 27.4967 15.6013 27.43 16.0065 27.43C16.4793 27.43 16.8845 27.43 17.4248 27.43C17.8976 27.43 18.3704 27.43 18.9107 27.4967C19.3834 27.5634 19.9237 27.5634 20.4641 27.6302C21.0044 27.6969 21.4771 27.7637 21.9499 27.8304C22.4227 27.8971 22.963 28.0306 23.3682 28.0974C23.841 28.1641 24.3137 28.2976 24.719 28.4311C25.1242 28.5645 25.5294 28.6313 25.9346 28.7648C27.3529 29.1652 28.2309 29.6324 28.2309 29.6324Z" fill="#ED2224"/>
<path d="M21.2745 26.3621C21.2745 26.3621 20.5316 26.0952 19.3834 25.8282C18.7756 25.6947 18.1002 25.5613 17.3573 25.4945C16.9521 25.4278 16.5468 25.361 16.2091 25.361C15.8039 25.2943 15.3987 25.2943 14.9934 25.2943C14.5882 25.2943 14.183 25.2943 13.7778 25.2943C13.3725 25.2943 13.0348 25.2943 12.6296 25.361C12.2919 25.361 11.8867 25.4278 11.549 25.4278C11.2113 25.4278 10.8736 25.4945 10.6035 25.5613C10.3333 25.628 10.0632 25.628 9.79301 25.6947C9.5904 25.7615 9.32024 25.7615 9.18517 25.8282C8.84748 25.895 8.64486 25.8949 8.64486 25.8949C8.37471 25.9617 8.17209 25.7615 8.10456 25.5613C8.03702 25.361 8.23963 25.0941 8.44225 25.0273C8.44225 25.0273 8.64486 25.0273 8.98255 24.9606C9.18517 24.9606 9.38778 24.8939 9.59039 24.8939C9.86055 24.8271 10.1307 24.8271 10.4009 24.8271C10.7385 24.8271 11.0087 24.7604 11.4139 24.7604C11.7516 24.7604 12.1568 24.7604 12.4945 24.7604C12.8998 24.7604 13.2375 24.7604 13.6427 24.7604C14.0479 24.7604 14.4531 24.8271 14.8584 24.8271C15.2636 24.8939 15.6688 24.8939 16.0741 24.9606C16.4793 25.0273 16.8845 25.0941 17.2222 25.1608C17.9651 25.2943 18.6405 25.4945 19.2483 25.628C20.5316 26.0284 21.2745 26.3621 21.2745 26.3621Z" fill="#6BCCE1"/>
<path d="M13.5077 30.3665C13.5077 30.3665 13.3726 30.3665 13.17 30.3665C12.9674 30.3665 12.6972 30.3665 12.292 30.4333C12.0894 30.4333 11.9543 30.5 11.7517 30.5C11.5491 30.5 11.3465 30.5667 11.1439 30.6335C10.9412 30.7002 10.6711 30.7002 10.4685 30.7669C10.2659 30.8337 9.99571 30.9004 9.79309 30.9672C9.59048 31.0339 9.32033 31.1006 9.11771 31.1674C8.9151 31.2341 8.71249 31.3676 8.50987 31.4343C8.30726 31.5011 8.10464 31.5678 7.90203 31.7013C7.69941 31.768 7.56434 31.9015 7.36172 31.9683C6.75388 32.302 6.34865 32.5022 6.34865 32.5022H6.28111C6.0785 32.6357 5.80835 32.5022 5.67327 32.302C5.53819 32.1017 5.67327 31.8348 5.87588 31.7013C5.87588 31.7013 5.87588 31.7013 5.94342 31.7013C5.94342 31.7013 6.41619 31.5011 7.09157 31.2341C7.29418 31.1674 7.42926 31.1006 7.63187 31.0339C7.83449 30.9672 8.0371 30.9004 8.23972 30.8337C8.44233 30.767 8.71248 30.7002 8.9151 30.6335C9.11771 30.5667 9.38787 30.5667 9.65802 30.5C9.92817 30.4333 10.1308 30.3665 10.4009 30.3665C10.6711 30.3665 10.8737 30.2998 11.0763 30.2998C11.2789 30.2998 11.5491 30.2998 11.7517 30.233C11.9543 30.233 12.1569 30.233 12.3595 30.233C12.6972 30.233 13.0349 30.233 13.2375 30.2998C13.3726 30.3665 13.5077 30.3665 13.5077 30.3665Z" fill="#6BCCE1"/>
<path d="M28.3661 31.6346C28.3661 31.6346 27.3531 31.8348 25.9348 32.302C25.5971 32.4355 25.1918 32.5689 24.7866 32.7024C24.3814 32.8359 23.9761 33.0361 23.5034 33.1696C23.0982 33.3698 22.6254 33.57 22.1526 33.7702C21.6799 33.9705 21.2746 34.1707 20.8019 34.4376C20.3291 34.6379 19.9239 34.9048 19.5186 35.1718C19.1134 35.4387 18.7082 35.7057 18.3029 35.9059C17.8977 36.1729 17.56 36.4398 17.2223 36.6401C16.8846 36.907 16.547 37.1072 16.2768 37.3742C16.0066 37.5744 15.7365 37.7746 15.4663 37.9748C15.2637 38.1751 15.0611 38.3085 14.8585 38.5088C14.5208 38.7757 14.3182 38.9759 14.3182 38.9759C14.048 39.2429 13.6428 39.1762 13.3727 38.9092C13.1025 38.6422 13.17 38.2418 13.4402 37.9748C13.4402 37.9748 13.4402 37.9748 13.5077 37.9748C13.5077 37.9748 13.7104 37.8414 14.048 37.5744C14.2507 37.4409 14.4533 37.3074 14.7234 37.1072C14.9936 36.907 15.2637 36.7735 15.6014 36.5066C15.9391 36.3064 16.2768 36.0394 16.682 35.8392C17.0873 35.639 17.425 35.372 17.8977 35.1718C18.3029 34.9716 18.7757 34.7046 19.2485 34.5044C19.7212 34.3042 20.194 34.0372 20.6668 33.9037C21.1395 33.7035 21.6123 33.5033 22.0851 33.3698C22.5578 33.1696 23.0306 33.0361 23.5034 32.9026C23.9761 32.7692 24.3814 32.6357 24.7866 32.5022C25.1918 32.3687 25.5971 32.302 26.0023 32.2352C27.3531 31.7013 28.3661 31.6346 28.3661 31.6346Z" fill="#ED2224"/>
<path d="M20.7343 32.302C20.7343 32.302 19.9238 32.4354 18.7757 32.7691C18.2354 32.9694 17.56 33.1696 16.8846 33.4365C16.5469 33.57 16.2092 33.7035 15.804 33.9037C15.4663 34.0372 15.1286 34.2374 14.7234 34.4376C14.3857 34.6379 14.048 34.8381 13.7103 35.0383C13.3726 35.2385 13.0349 35.4387 12.7648 35.639C12.4271 35.8392 12.1569 36.0394 11.8868 36.2396C11.6166 36.4398 11.3465 36.64 11.1439 36.8403C10.9413 37.0405 10.6711 37.174 10.536 37.3074C10.3334 37.4409 10.1983 37.5744 10.0633 37.7079C9.79311 37.9081 9.65804 38.0416 9.65804 38.0416C9.45542 38.1751 9.18527 38.1751 9.05019 37.9748C8.91512 37.7746 8.91512 37.5077 9.11773 37.3742C9.11773 37.3742 9.25281 37.2407 9.5905 37.0405C9.72558 36.907 9.92819 36.8403 10.1308 36.64C10.3334 36.5066 10.536 36.3731 10.8062 36.1729C11.0763 36.0394 11.3465 35.8392 11.6166 35.639C11.8868 35.4387 12.2245 35.2385 12.5622 35.105C12.8999 34.9048 13.2376 34.7713 13.5752 34.5711C13.9129 34.3709 14.3182 34.2374 14.6559 34.0372C15.0611 33.9037 15.3988 33.7035 15.7365 33.57C16.0742 33.4365 16.4794 33.3031 16.8171 33.1696C17.56 32.9026 18.2354 32.7691 18.7757 32.5689C19.9238 32.3687 20.7343 32.302 20.7343 32.302Z" fill="#6BCCE1"/>
<path d="M16.074 39.5766C16.074 39.5766 15.9389 39.6433 15.8039 39.71C15.6013 39.8435 15.3986 39.977 15.0609 40.1772C14.9259 40.3107 14.7908 40.3774 14.5882 40.5109C14.4531 40.6444 14.2505 40.7779 14.1154 40.9114C13.9803 41.0448 13.7777 41.1783 13.6426 41.3785C13.44 41.512 13.305 41.7122 13.1699 41.8457C13.0348 42.0459 12.8322 42.1794 12.6971 42.3796C12.562 42.5799 12.427 42.7133 12.2919 42.9136C12.1568 43.1138 12.0217 43.2472 11.8867 43.3807C11.7516 43.5142 11.684 43.7144 11.549 43.8479C11.1437 44.4486 10.9411 44.849 10.9411 44.849V44.9157C10.806 45.116 10.5359 45.1827 10.3333 45.0492C10.1307 44.9157 10.0631 44.6488 10.1982 44.4486C10.1982 44.4486 10.1982 44.4486 10.1982 44.3818C10.1982 44.3818 10.5359 43.9814 10.9411 43.4475C11.0762 43.314 11.1437 43.1138 11.3464 42.9803C11.4814 42.8468 11.6165 42.6466 11.8191 42.5131C11.9542 42.3796 12.1568 42.1794 12.2919 42.0459C12.4945 41.9125 12.6296 41.7122 12.8322 41.5788C13.0348 41.4453 13.1699 41.2451 13.3725 41.1116C13.5751 40.9781 13.7777 40.8446 13.9128 40.7111C14.1154 40.5777 14.2505 40.4442 14.4531 40.3774C14.6557 40.244 14.7908 40.1772 14.9259 40.1105C15.2636 39.9103 15.5337 39.7768 15.6688 39.71C15.9389 39.6433 16.074 39.5766 16.074 39.5766Z" fill="#6BCCE1"/>
<path d="M29.5142 33.3031C29.5142 33.3031 28.7713 33.9705 27.7582 35.0383C27.4881 35.3053 27.2179 35.639 26.9478 35.9727C26.6776 36.3064 26.4075 36.64 26.1373 37.0405C25.597 37.7746 24.9892 38.5755 24.4489 39.4431C24.1787 39.8435 23.9086 40.3107 23.7059 40.7112C23.4358 41.1116 23.2332 41.5788 23.0306 41.9792C22.828 42.3797 22.6253 42.7801 22.4227 43.1805C22.2201 43.581 22.085 43.9147 21.95 44.2484C21.8149 44.5821 21.6798 44.9158 21.5447 45.1827C21.4772 45.4497 21.3421 45.7166 21.2746 45.9169C21.1395 46.3173 21.072 46.5843 21.072 46.5843C20.9369 46.918 20.5992 47.1182 20.2615 46.9847C19.9238 46.8512 19.7212 46.5175 19.8563 46.1838C19.8563 46.1838 19.8563 46.1838 19.8563 46.1171C19.8563 46.1171 19.9914 45.8501 20.1264 45.4497C20.194 45.2495 20.329 44.9825 20.4641 44.7155C20.5992 44.4486 20.7343 44.1149 20.9369 43.7812C21.1395 43.4475 21.2746 43.0471 21.5447 42.7134C21.7473 42.3129 21.95 41.9125 22.2201 41.512C22.4903 41.1116 22.7604 40.7112 23.0306 40.3107C23.3007 39.9103 23.5709 39.5099 23.9086 39.1094C24.5164 38.3085 25.1918 37.5077 25.7996 36.8403C26.1373 36.5066 26.4075 36.1729 26.7452 35.8392C27.0829 35.5055 27.353 35.2385 27.6232 34.9716C28.7038 33.9037 29.5142 33.3031 29.5142 33.3031Z" fill="#ED2224"/>
<path d="M23.3006 37.7079C23.3006 37.7079 22.6927 38.1751 21.8823 39.1094C21.4771 39.5766 21.0043 40.0438 20.5991 40.6444C20.3964 40.9114 20.1263 41.2451 19.9237 41.5788C19.7211 41.9125 19.5185 42.2462 19.2483 42.5799C19.0457 42.9136 18.8431 43.2473 18.6405 43.581C18.4378 43.9147 18.3028 44.2484 18.1002 44.5821C17.9651 44.9158 17.7625 45.2495 17.6274 45.5164C17.4923 45.8501 17.3572 46.1171 17.2222 46.384C17.0871 46.651 17.0195 46.918 16.952 47.1182C16.8845 47.3184 16.8169 47.5186 16.7494 47.7188C16.6143 48.0525 16.5468 48.2527 16.5468 48.2527C16.4792 48.453 16.2091 48.5864 16.0065 48.5197C15.8039 48.453 15.6688 48.186 15.7363 47.9858C15.7363 47.9858 15.8039 47.7856 15.9389 47.4519C16.0065 47.3184 16.074 47.1182 16.2091 46.8512C16.2766 46.651 16.4117 46.384 16.5468 46.1171C16.6819 45.8501 16.8169 45.5164 17.0195 45.2495C17.2222 44.9158 17.3572 44.6488 17.5598 44.3151C17.7625 43.9814 17.9651 43.6477 18.1677 43.314C18.3703 42.9803 18.6405 42.6466 18.8431 42.3129C19.1132 41.9792 19.3158 41.6455 19.586 41.3786C19.8561 41.0449 20.0588 40.7779 20.3289 40.5109C20.8017 39.977 21.342 39.4431 21.7472 39.0427C22.6252 38.1083 23.3006 37.7079 23.3006 37.7079Z" fill="#6BCCE1"/>
<path d="M22.9631 46.3173C22.9631 46.3173 22.8955 46.384 22.828 46.5843C22.6929 46.7845 22.6254 47.0514 22.4228 47.3184C22.3552 47.4519 22.2877 47.6521 22.2202 47.8523C22.1526 48.0525 22.0851 48.2527 22.0176 48.453C21.95 48.6532 21.8825 48.8534 21.8149 49.1204C21.7474 49.3206 21.6799 49.5875 21.6123 49.7877C21.5448 49.988 21.4772 50.2549 21.4772 50.4551C21.4772 50.6554 21.4097 50.9223 21.4097 51.1225C21.4097 51.3228 21.3422 51.523 21.3422 51.7232C21.2746 51.9234 21.3422 52.1236 21.2746 52.2571C21.2746 52.9245 21.2071 53.3917 21.2071 53.3917V53.4584C21.2071 53.7254 21.0045 53.8589 20.7343 53.8589C20.4642 53.8589 20.3291 53.6586 20.3291 53.3917C20.3291 53.3917 20.3291 53.3917 20.3291 53.3249C20.3291 53.3249 20.3966 52.8578 20.5317 52.1236C20.5993 51.9234 20.5993 51.7232 20.6668 51.523C20.7343 51.3228 20.8019 51.1225 20.8019 50.9223C20.8694 50.7221 20.9369 50.4551 21.0045 50.2549C21.072 50.0547 21.1396 49.7878 21.2746 49.5875C21.3422 49.3873 21.4097 49.1204 21.5448 48.9201C21.6123 48.7199 21.7474 48.5197 21.8149 48.3195C21.8825 48.1193 22.0176 47.919 22.0851 47.7188C22.1526 47.5186 22.2877 47.3851 22.3552 47.1849C22.5579 46.8512 22.6929 46.651 22.828 46.4508L22.9631 46.3173Z" fill="#6BCCE1"/>
<path d="M30.122 41.512C30.122 41.512 29.6492 42.1127 29.0414 43.1805C28.7712 43.7144 28.4335 44.3151 28.0959 44.9825C27.9608 45.3162 27.7582 45.6499 27.6231 46.0503C27.488 46.384 27.3529 46.7845 27.2179 47.1181C27.0828 47.5186 26.9477 47.8523 26.8802 48.2527C26.7451 48.6532 26.6776 48.9869 26.61 49.3206C26.5425 49.6543 26.4749 50.0547 26.4074 50.3217C26.3399 50.6554 26.2723 50.989 26.2048 51.256C26.1373 51.523 26.0697 51.7899 26.0697 52.0569C26.0697 52.3238 26.0022 52.5241 26.0022 52.6575C25.9346 52.9912 25.9346 53.1915 25.9346 53.1915C25.9346 53.4584 25.6645 53.5919 25.4619 53.5919C25.1917 53.5919 25.0566 53.3249 25.0566 53.1247C25.0566 53.1247 25.1242 52.9245 25.1917 52.5908C25.1917 52.3906 25.2593 52.1904 25.3268 51.9901C25.3943 51.7232 25.4619 51.4562 25.5294 51.1893C25.5969 50.9223 25.6645 50.5886 25.7996 50.2549C25.8671 49.9212 26.0022 49.5875 26.1373 49.1871C26.2723 48.8534 26.4074 48.4529 26.5425 48.1192C26.6776 47.7855 26.8126 47.3851 27.0152 46.9847C27.1503 46.651 27.3529 46.2505 27.488 45.9168C27.6906 45.5831 27.8257 45.2494 28.0283 44.9157C28.366 44.2483 28.7712 43.6477 29.1089 43.1805C29.5817 42.1127 30.122 41.512 30.122 41.512Z" fill="#6BCCE1"/>
<path d="M29.9194 26.896C29.9194 26.896 29.3115 25.628 28.2309 23.826C27.9608 23.3589 27.6231 22.8917 27.2854 22.4245C26.9477 21.9573 26.61 21.4234 26.2048 20.8895C26.0022 20.6225 25.7996 20.3556 25.5969 20.0886C25.3943 19.8217 25.1917 19.5547 24.9216 19.2877C24.5163 18.7538 24.0436 18.2199 23.5708 17.686C23.098 17.1521 22.6253 16.6849 22.1525 16.151C21.6797 15.6838 21.1394 15.2166 20.6667 14.7494C20.1939 14.2823 19.7211 13.8818 19.2484 13.5481C18.7756 13.1477 18.3704 12.814 17.8976 12.4803C17.4924 12.1466 17.0871 11.8796 16.7494 11.6127C16.4118 11.3457 16.0741 11.1455 15.8714 11.012C15.3987 10.6783 15.061 10.4781 15.061 10.4781C14.7908 10.2779 14.7233 9.87745 14.9259 9.61049C15.1285 9.34353 15.5338 9.27679 15.8039 9.47701C15.8039 9.47701 16.0741 9.67723 16.6144 10.0777C16.8845 10.2779 17.1547 10.4781 17.4924 10.7451C17.8301 11.012 18.1677 11.3457 18.6405 11.6794C19.0457 12.0131 19.5185 12.4136 19.9237 12.814C20.329 13.2144 20.8693 13.6816 21.2745 14.1488C21.7473 14.616 22.22 15.1499 22.6928 15.6171C23.1656 16.151 23.6383 16.6849 24.0436 17.2188C24.5163 17.7527 24.9216 18.3534 25.3268 18.8873C25.5294 19.1543 25.732 19.4212 25.9346 19.7549C26.1372 20.0219 26.3399 20.2888 26.4749 20.5558C26.8802 21.0897 27.1503 21.6236 27.488 22.1575C27.7582 22.6915 28.0958 23.1586 28.366 23.6258C29.3791 25.628 29.9194 26.896 29.9194 26.896Z" fill="#F5EB16"/>
<path d="M28.2985 28.4311C28.2985 28.4311 27.1504 27.6302 25.2593 26.6291C24.7866 26.3621 24.2463 26.1619 23.7735 25.8282C23.2332 25.5612 22.6253 25.2943 22.0175 25.0273C21.6798 24.8939 21.4097 24.7604 21.072 24.6269C20.7343 24.4934 20.4641 24.3599 20.1264 24.2932C19.451 24.0262 18.8432 23.826 18.1678 23.6258C17.4924 23.4256 16.8171 23.2254 16.1417 23.0251C15.4663 22.8249 14.7909 22.6914 14.1831 22.558C13.5752 22.4245 12.8999 22.291 12.3595 22.2243C11.7517 22.0908 11.2114 22.0241 10.6711 21.9573C10.1308 21.8906 9.65802 21.8238 9.25279 21.7571C8.84757 21.6904 8.44234 21.6904 8.17218 21.6904C7.56434 21.6236 7.22665 21.6236 7.22665 21.6236H7.15911C6.82142 21.6236 6.55127 21.2899 6.55127 20.9562C6.55127 20.6225 6.88896 20.3556 7.22665 20.3556C7.22665 20.3556 7.22665 20.3556 7.29419 20.3556C7.29419 20.3556 7.63188 20.4223 8.23972 20.489C8.57741 20.5558 8.9151 20.5558 9.38787 20.6225C9.7931 20.6893 10.3334 20.8227 10.8062 20.8895C11.3465 21.023 11.8868 21.0897 12.4946 21.2232C13.1025 21.3567 13.7103 21.4901 14.3857 21.6904C14.9935 21.8906 15.6689 22.0908 16.3443 22.291C17.0197 22.558 17.6951 22.7582 18.3704 23.0251C19.0458 23.2921 19.7212 23.5591 20.329 23.826C20.6667 23.9595 20.9369 24.093 21.2746 24.2265C21.6123 24.3599 21.8824 24.4934 22.1526 24.6936C22.7604 24.9606 23.3007 25.2943 23.841 25.5612C24.3813 25.8949 24.8541 26.1619 25.3269 26.4289C27.2179 27.5634 28.2985 28.4311 28.2985 28.4311Z" fill="#F5EB16"/>
<path d="M27.6906 30.5C27.6906 30.5 26.2723 30.3665 24.1787 30.4332C23.6384 30.4332 23.098 30.5 22.4902 30.5C21.8824 30.5667 21.2745 30.5667 20.5991 30.7002C20.2614 30.7669 19.9238 30.7669 19.5861 30.8337C19.2484 30.9004 18.9107 30.9672 18.573 30.9672C17.8976 31.0339 17.2222 31.2341 16.5468 31.3676C15.8715 31.5011 15.1961 31.7013 14.5207 31.8348C13.8453 31.9683 13.2375 32.2352 12.5621 32.3687C11.9543 32.5689 11.3464 32.7691 10.8061 32.9694C10.2658 33.1696 9.7255 33.3698 9.25273 33.57C8.77996 33.7702 8.3072 33.9037 7.96951 34.1039C7.56428 34.3041 7.22659 34.4376 6.95643 34.5711C6.41613 34.8381 6.07844 34.9715 6.07844 34.9715C5.74075 35.105 5.33552 34.9715 5.20044 34.6378C5.06537 34.3041 5.20044 33.9037 5.53813 33.7702C5.53813 33.7702 5.53813 33.7702 5.60567 33.7702C5.60567 33.7702 5.94336 33.6367 6.55121 33.4365C6.82136 33.303 7.22659 33.1696 7.63182 33.0361C8.03704 32.9026 8.50981 32.7024 8.98258 32.5689C9.52288 32.3687 10.0632 32.1685 10.6035 32.035C11.2113 31.9015 11.8192 31.7013 12.4946 31.5011C13.1699 31.3676 13.8453 31.1674 14.5207 31.0339C15.1961 30.9004 15.939 30.7669 16.6144 30.6335C17.2898 30.5 18.0327 30.4332 18.7081 30.3665C19.0458 30.2998 19.3834 30.2998 19.7211 30.233C20.0588 30.233 20.3965 30.1663 20.7342 30.1663C21.4096 30.0995 22.0174 30.0995 22.6253 30.0995C23.2331 30.0995 23.841 30.0995 24.3137 30.0995C26.2723 30.2998 27.6906 30.5 27.6906 30.5Z" fill="#F5EB16"/>
<path d="M28.2309 32.6357C28.2309 32.6357 26.9477 33.2363 25.1242 34.3041C24.6514 34.5711 24.1787 34.9048 23.7059 35.2385C23.2331 35.5722 22.6928 35.9059 22.1525 36.3063C21.8824 36.5065 21.6122 36.7068 21.3421 36.907C21.0719 37.1072 20.8018 37.3074 20.5316 37.5744C19.9913 37.9748 19.451 38.442 18.9107 38.9092C18.3704 39.3763 17.8976 39.8435 17.4248 40.3107C16.9521 40.7779 16.4793 41.3118 16.0065 41.779C15.5338 42.2462 15.1285 42.7133 14.7909 43.1805C14.3856 43.6477 14.0479 44.0481 13.7102 44.5153C13.3726 44.9157 13.1024 45.3162 12.8323 45.6499C12.5621 45.9836 12.3595 46.3173 12.2244 46.5175C11.8867 46.9847 11.6841 47.3184 11.6841 47.3184C11.4815 47.5853 11.0763 47.6521 10.8061 47.4518C10.536 47.2516 10.4684 46.8512 10.671 46.5842C10.671 46.5842 10.8736 46.3173 11.2789 45.7834C11.4815 45.5164 11.6841 45.2494 11.9543 44.9157C12.2244 44.582 12.5621 44.2483 12.8998 43.7812C13.2375 43.3807 13.6427 42.9135 14.0479 42.5131C14.4532 42.1127 14.9259 41.5788 15.3987 41.1783C15.8715 40.7111 16.4118 40.244 16.8845 39.7768C17.4248 39.3096 17.9651 38.8424 18.5055 38.442C19.0458 37.9748 19.5861 37.5744 20.1939 37.1739C20.4641 36.9737 20.7342 36.7735 21.0044 36.5733C21.2745 36.3731 21.5447 36.1728 21.8148 36.0394C22.3551 35.6389 22.8954 35.372 23.4357 35.0383C23.976 34.7713 24.4488 34.4376 24.9216 34.1707C26.8802 33.1696 28.2309 32.6357 28.2309 32.6357Z" fill="#F5EB16"/>
<path d="M29.7169 34.2374C29.7169 34.2374 28.9064 35.372 27.8933 37.2407C27.6232 37.7079 27.4206 38.2418 27.1504 38.7757C26.8803 39.3096 26.6101 39.9103 26.34 40.511C26.2049 40.8446 26.0698 41.1116 25.9347 41.4453C25.7997 41.779 25.6646 42.046 25.5971 42.3797C25.3269 43.0471 25.1243 43.6477 24.9217 44.3151C24.7191 44.9825 24.5164 45.6499 24.3138 46.3173C24.1112 46.9847 23.9761 47.6521 23.8411 48.2527C23.706 48.8534 23.5709 49.5208 23.5034 50.0547C23.3683 50.6554 23.3008 51.1893 23.2332 51.7232C23.1657 52.2571 23.0981 52.7243 23.0306 53.1247C22.9631 53.5252 22.9631 53.9256 22.9631 54.1926C22.8955 54.7932 22.8955 55.1269 22.8955 55.1269V55.1937C22.8955 55.5274 22.5578 55.7943 22.2201 55.7943C21.8825 55.7943 21.6123 55.4606 21.6123 55.1269C21.6123 55.1269 21.6123 55.1269 21.6123 55.0602C21.6123 55.0602 21.6798 54.7265 21.7474 54.1258C21.8149 53.7921 21.8149 53.4584 21.8825 52.9913C21.95 52.5908 22.0851 52.0569 22.1526 51.5897C22.2877 51.0558 22.3552 50.5219 22.4903 49.9212C22.6254 49.3206 22.7605 48.7199 22.9631 48.0525C23.1657 47.4519 23.3683 46.7845 23.5709 46.1171C23.8411 45.4497 24.0437 44.7823 24.3138 44.1149C24.584 43.4475 24.8541 42.7801 25.1243 42.1794C25.2594 41.8457 25.3944 41.5788 25.5295 41.2451C25.6646 40.9114 25.7997 40.6444 26.0023 40.3107C26.2724 39.7101 26.6101 39.1762 26.8803 38.6422C27.218 38.1083 27.4881 37.6411 27.7583 37.174C28.8389 35.3053 29.7169 34.2374 29.7169 34.2374Z" fill="#F5EB16"/>
<path d="M31.8105 34.8381C31.8105 34.8381 32.0131 36.2396 32.0807 38.3085C32.0807 38.8425 32.0807 39.3764 32.0807 39.977C32.0807 40.5777 32.0807 41.2451 32.0131 41.8457C32.0131 42.1794 31.9456 42.5131 31.9456 42.8468C31.8781 43.1805 31.8781 43.5142 31.8105 43.8479C31.743 44.5153 31.6079 45.2495 31.5404 45.9169C31.4728 46.5842 31.2702 47.3184 31.1351 47.9858C31.0001 48.6532 30.7975 49.3206 30.6624 49.988C30.5273 50.6554 30.3247 51.256 30.1221 51.8567C29.987 52.4573 29.7844 52.9912 29.5818 53.4584C29.3792 53.9923 29.2441 54.4595 29.109 54.7932C28.9739 55.1937 28.7713 55.5273 28.7038 55.861C28.5012 56.4617 28.3661 56.7954 28.3661 56.7954C28.231 57.1291 27.8258 57.2626 27.4881 57.1291C27.1504 56.9956 27.0153 56.5952 27.1504 56.2615C27.1504 56.2615 27.2855 55.9278 27.5556 55.3939C27.6907 55.1269 27.8258 54.7932 28.0284 54.3928C28.231 53.9923 28.3661 53.5919 28.5687 53.058C28.7713 52.5908 28.9739 52.0569 29.1765 51.523C29.3792 50.9891 29.5818 50.3884 29.7844 49.721C29.987 49.1203 30.1896 48.453 30.3247 47.7856C30.4598 47.1182 30.6624 46.4508 30.7975 45.7834C30.9325 45.116 31.0676 44.4486 31.2027 43.7144C31.2702 43.3807 31.3378 43.047 31.3378 42.7133C31.4053 42.3796 31.4053 42.046 31.4728 41.7123C31.5404 41.0449 31.6079 40.4442 31.6754 39.8435C31.6754 39.2429 31.743 38.709 31.743 38.1751C31.9456 36.2396 31.8105 34.8381 31.8105 34.8381Z" fill="#ED2224"/>
<path d="M10.8736 11.8796L11.2788 12.6805L12.1568 12.814L11.4814 13.4147L11.684 14.2823L10.8736 13.8818L10.0631 14.2823L10.1982 13.4147L9.59033 12.814L10.4683 12.6805L10.8736 11.8796Z" fill="#ED2224"/>
<path d="M58.6231 14.2823L59.0283 15.0832L59.9063 15.2166L59.2985 15.8173L59.4335 16.7517L58.6231 16.2845L57.8126 16.7517L58.0152 15.8173L57.3398 15.2166L58.2178 15.0832L58.6231 14.2823Z" fill="#ED2224"/>
<path d="M3.71462 26.5624L4.11985 27.3633L4.99785 27.4967L4.32246 28.0974L4.52508 28.965L3.71462 28.5646L2.90416 28.965L3.03924 28.0974L2.4314 27.4967L3.30939 27.3633L3.71462 26.5624Z" fill="#ED2224"/>
<path d="M55.989 39.5766L56.3943 40.3775L57.2723 40.511L56.6644 41.1784L56.7995 42.046L55.989 41.5788L55.2461 42.046L55.3812 41.1784L54.7058 40.511L55.6513 40.3775L55.989 39.5766Z" fill="#ED2224"/>
<path d="M33.4314 55.3271L33.8366 56.128L34.7146 56.2615L34.0393 56.8622L34.2419 57.7298L33.4314 57.3293L32.621 57.7298L32.756 56.8622L32.1482 56.2615L33.0262 56.128L33.4314 55.3271Z" fill="#ED2224"/>
<path d="M49.9782 47.7856L50.1808 48.4529L50.7887 48.6532L50.2484 49.0536V49.721L49.7081 49.3206L49.0327 49.5208L49.2353 48.9201L48.8301 48.3195H49.573L49.9782 47.7856Z" fill="#F5EB16"/>
<path d="M57.4075 26.3622L57.6101 27.0295L58.2855 27.2298L57.6777 27.6302V28.2976L57.1374 27.8972L56.462 28.0974L56.7321 27.4967L56.3269 26.8961L57.0023 26.9628L57.4075 26.3622Z" fill="#F5EB16"/>
<path d="M19.9238 4.47155L20.7342 4.80525L21.5447 4.33807L21.4096 5.20569L22.085 5.80634L21.207 6.00656L20.8693 6.80744L20.4641 6.00656L19.5186 5.93982L20.1264 5.33917L19.9238 4.47155Z" fill="#6BCCE1"/>
<path d="M29.1089 4.60504L29.6492 5.00548L30.3246 4.73852L30.122 5.40592L30.5947 5.93983H29.8518L29.5141 6.54049L29.244 5.87309L28.5686 5.73961L29.1089 5.27244V4.60504Z" fill="#ED2224"/>
<path d="M38.5643 2.66959L39.2397 3.27024L40.1177 3.13676L39.7124 3.93764L40.1852 4.67177L39.3072 4.60503L38.6994 5.20569L38.4967 4.33808L37.6863 4.00438L38.4967 3.60394L38.5643 2.66959Z" fill="#F5EB16"/>
<path d="M8.57737 38.9092L9.18521 39.5098L10.0632 39.3096L9.65798 40.1105L10.1307 40.9114L9.25275 40.7779L8.64491 41.4453L8.44229 40.5777L7.63184 40.1772L8.44229 39.7768L8.57737 38.9092Z" fill="#F5EB16"/>
<path d="M47.1415 52.6576L47.5467 53.1915H48.2897L47.8844 53.7254L48.087 54.3928L47.4117 54.1926L46.8714 54.593V53.9256L46.3311 53.5252L46.9389 53.325L47.1415 52.6576Z" fill="#6BCCE1"/>
<path d="M51.3965 7.40808L51.8018 7.942H52.4772L52.0719 8.47591L52.3421 9.14331L51.6667 8.94309L51.1264 9.34353V8.67613L50.5186 8.2757L51.1939 8.07548L51.3965 7.40808Z" fill="#6BCCE1"/>
<path d="M12.8998 49.1871L13.305 49.721H14.048L13.6427 50.2549L13.8453 50.9223L13.17 50.7221L12.6297 51.1225V50.4551L12.0894 50.0547L12.6972 49.8545L12.8998 49.1871Z" fill="#6BCCE1"/>
</svg>
