<svg width="21" height="21" viewBox="0 0 21 21" fill="none" xmlns="http://www.w3.org/2000/svg">
<g clip-path="url(#clip0_40_4137)">
<path d="M16.6731 2.25417C19.2702 4.12916 20.9604 7.19582 20.9604 10.6667C20.9604 16.3667 16.3927 20.9875 10.7574 21C5.13021 21.0125 0.521315 16.375 0.513069 10.6833C0.508947 7.21249 2.19915 4.13749 4.79217 2.25833C5.27449 1.9125 5.94646 2.05834 6.23503 2.57916L6.88638 3.75C7.1296 4.1875 7.01418 4.74166 6.61429 5.04167C4.90348 6.32499 3.81103 8.35832 3.81103 10.6625C3.80691 14.5083 6.88225 17.6666 10.7367 17.6666C14.5129 17.6666 17.6872 14.575 17.6625 10.6208C17.65 8.4625 16.6441 6.37916 14.8551 5.03749C14.4552 4.73749 14.3439 4.18333 14.5871 3.75L15.2385 2.57916C15.5271 2.06249 16.1949 1.90833 16.6731 2.25417ZM12.3857 11V0.999999C12.3857 0.445833 11.9446 0 11.3963 0H10.0771C9.52887 0 9.08776 0.445833 9.08776 0.999999V11C9.08776 11.5542 9.52887 12 10.0771 12H11.3963C11.9446 12 12.3857 11.5542 12.3857 11Z" fill="white"/>
</g>
<defs>
<clipPath id="clip0_40_4137">
<rect width="21" height="21" fill="white"/>
</clipPath>
</defs>
</svg>
