<svg width="164" height="143" viewBox="0 0 164 143" fill="none" xmlns="http://www.w3.org/2000/svg">
<path d="M1.57301 95.747L27.728 95.708L27.687 65.97L1.53101 66.009L5.88401 80.858L1.57301 95.747Z" fill="#79AD42"/>
<path d="M27.727 94.435L3.01102 94.472L7.32302 80.858L2.97202 67.28L27.688 67.243" stroke="#5F8D3D" stroke-width="0.2285" stroke-miterlimit="10"/>
<path d="M12.579 88.927L27.672 95.169L27.885 85.535L12.579 88.927Z" fill="#5F8D3D"/>
<path d="M160.737 95.747L134.581 95.708L134.623 65.97L160.779 66.009L156.426 80.858L160.737 95.747Z" fill="#79AD42"/>
<path d="M134.583 94.435L159.299 94.472L154.986 80.858L159.337 67.28L134.621 67.243" stroke="#5F8D3D" stroke-width="0.2285" stroke-miterlimit="10"/>
<path d="M149.73 88.927L134.637 95.169L134.424 85.535L149.73 88.927Z" fill="#5F8D3D"/>
<path d="M84.276 9.044C103.63 9.044 115.334 19.533 121.745 28.333C130.113 39.819 134.912 55.885 134.912 72.411C134.912 88.907 130.325 104.111 121.997 115.222C112.861 127.411 99.645 133.853 83.78 133.853H83.689H83.436L83.184 133.875C81.546 134.016 79.911 134.087 78.324 134.087C58.966 134.087 47.259 123.598 40.848 114.798C32.479 103.312 27.679 87.247 27.679 70.721C27.679 54.225 32.266 39.02 40.596 27.909C49.734 15.72 62.951 9.277 78.818 9.277H78.909H79.162L79.414 9.255C81.051 9.114 82.686 9.043 84.274 9.043L84.276 9.044ZM84.273 3.222C82.527 3.222 80.739 3.299 78.915 3.456C78.881 3.456 78.852 3.456 78.818 3.456C1.29301 3.456 4.62701 139.908 78.324 139.908C80.07 139.908 81.858 139.831 83.682 139.674C83.716 139.674 83.745 139.674 83.779 139.674C161.303 139.674 157.969 3.219 84.273 3.222Z" fill="#915341"/>
<path d="M83.38 15.01C97.483 15.01 109.393 21.162 117.823 32.8C125.285 43.103 129.565 57.46 129.565 72.19C129.565 86.96 125.447 100.639 117.969 110.707C109.571 122.015 97.468 127.992 82.968 127.992H82.834H82.79L82.746 127.995C81.562 128.078 80.375 128.119 79.218 128.119C65.113 128.119 53.2 121.967 44.769 110.329C37.306 100.027 33.025 85.67 33.025 70.94C33.025 56.17 37.144 42.491 44.622 32.422C53.021 21.114 65.126 15.137 79.627 15.137H79.762H79.806L79.85 15.134C81.034 15.052 82.221 15.01 83.378 15.01H83.38ZM83.378 13.795C82.196 13.795 80.991 13.837 79.766 13.922C79.717 13.922 79.677 13.922 79.628 13.922C14.73 13.922 17.158 129.334 79.219 129.334C80.401 129.334 81.606 129.292 82.831 129.207C82.88 129.207 82.92 129.207 82.968 129.207C147.865 129.207 145.437 13.794 83.378 13.795Z" fill="#915341"/>
<path d="M149.725 61.734H12.579V88.844H149.725V61.734Z" fill="#87C447"/>
<path d="M12.581 62.949L149.727 62.97" stroke="#5F8D3D" stroke-width="0.2177" stroke-miterlimit="10"/>
<path d="M149.723 87.629L12.577 87.608" stroke="#5F8D3D" stroke-width="0.2177" stroke-miterlimit="10"/>
<path d="M35.294 74.477C35.34 79.302 32.433 81.888 28.856 81.922C25.154 81.958 22.527 79.113 22.486 74.87C22.443 70.42 25.181 67.481 28.924 67.445C32.751 67.409 35.254 70.317 35.294 74.477ZM24.42 74.81C24.449 77.805 26.097 80.472 28.946 80.445C31.816 80.418 33.412 77.76 33.382 74.578C33.355 71.792 31.872 68.894 28.856 68.924C25.861 68.952 24.39 71.732 24.42 74.81Z" fill="white"/>
<path d="M37.581 74.683C37.569 73.497 37.539 72.479 37.468 71.544L39.07 71.528L39.151 73.503L39.234 73.502C39.678 72.147 40.772 71.283 41.999 71.272C42.207 71.27 42.353 71.29 42.519 71.329L42.536 73.054C42.349 73.015 42.162 72.995 41.912 72.998C40.623 73.01 39.717 73.996 39.481 75.371C39.442 75.622 39.403 75.913 39.406 76.225L39.458 81.59L37.648 81.608L37.581 74.683Z" fill="white"/>
<path d="M52.856 71.396C52.821 72.124 52.788 72.935 52.799 74.163L52.856 80.007C52.878 82.316 52.434 83.734 51.466 84.616C50.497 85.541 49.085 85.845 47.817 85.857C46.611 85.869 45.277 85.59 44.461 85.058L44.905 83.66C45.575 84.069 46.618 84.434 47.866 84.422C49.738 84.404 51.101 83.413 51.076 80.877L51.065 79.754H51.023C50.471 80.695 49.397 81.454 47.837 81.47C45.341 81.493 43.532 79.39 43.505 76.603C43.472 73.192 45.678 71.237 47.987 71.215C49.734 71.198 50.699 72.104 51.145 72.931L51.187 72.93L51.255 71.412L52.856 71.396ZM51.002 75.385C50.999 75.073 50.976 74.803 50.89 74.554C50.547 73.497 49.644 72.633 48.313 72.646C46.566 72.663 45.333 74.151 45.355 76.48C45.374 78.456 46.388 80.089 48.364 80.07C49.487 80.059 50.499 79.342 50.884 78.174C50.985 77.861 51.023 77.507 51.02 77.195L51.002 75.385Z" fill="white"/>
<path d="M61.476 81.379L61.318 80.111L61.256 80.112C60.702 80.907 59.628 81.625 58.193 81.638C56.154 81.659 55.101 80.233 55.087 78.777C55.064 76.344 57.213 74.993 61.103 74.975L61.101 74.767C61.093 73.935 60.85 72.441 58.79 72.461C57.854 72.47 56.879 72.77 56.177 73.234L55.75 72.033C56.576 71.484 57.779 71.119 59.048 71.107C62.126 71.077 62.895 73.17 62.914 75.188L62.951 78.952C62.959 79.826 63.009 80.678 63.14 81.363L61.476 81.379ZM61.157 76.244C59.16 76.222 56.896 76.597 56.915 78.552C56.926 79.738 57.722 80.292 58.658 80.282C59.969 80.269 60.792 79.429 61.075 78.574C61.136 78.386 61.175 78.178 61.173 77.991L61.157 76.244Z" fill="white"/>
<path d="M65.854 73.994C65.844 72.954 65.815 72.102 65.745 71.271L67.367 71.255L67.487 72.917H67.529C68.02 71.956 69.175 71.009 70.839 70.993C72.232 70.979 74.403 71.79 74.437 75.242L74.495 81.253L72.665 81.271L72.609 75.468C72.593 73.846 71.977 72.5 70.251 72.516C69.045 72.528 68.117 73.39 67.815 74.412C67.734 74.641 67.696 74.953 67.699 75.266L67.757 81.318L65.926 81.337L65.854 73.994Z" fill="white"/>
<path d="M79.379 68.311C79.405 68.935 78.953 69.438 78.225 69.445C77.58 69.451 77.118 68.957 77.112 68.333C77.106 67.688 77.579 67.185 78.244 67.178C78.93 67.171 79.372 67.666 79.379 68.311ZM77.464 81.225L77.367 71.16L79.198 71.142L79.295 81.207L77.464 81.225Z" fill="white"/>
<path d="M89.502 80.733C89.026 80.987 87.969 81.331 86.617 81.343C83.58 81.372 81.584 79.332 81.555 76.254C81.525 73.155 83.624 70.89 86.91 70.858C87.992 70.848 88.951 71.108 89.453 71.354L89.051 72.771C88.612 72.526 87.923 72.304 86.925 72.314C84.616 72.336 83.385 74.053 83.404 76.154C83.426 78.483 84.938 79.904 86.935 79.884C87.975 79.874 88.658 79.597 89.176 79.363L89.502 80.733Z" fill="white"/>
<path d="M95.979 67.027L103.529 66.954L103.544 68.472L97.804 68.527L97.85 73.185L103.153 73.134L103.167 74.631L97.864 74.683L97.926 81.026L96.116 81.044L95.979 67.027Z" fill="white"/>
<path d="M114.593 75.749C114.629 79.472 112.066 81.119 109.633 81.143C106.908 81.169 104.789 79.193 104.758 76.011C104.726 72.641 106.911 70.645 109.697 70.618C112.589 70.59 114.564 72.671 114.593 75.749ZM106.608 75.931C106.629 78.135 107.915 79.786 109.704 79.769C111.45 79.752 112.744 78.097 112.723 75.831C112.706 74.125 111.833 71.971 109.67 71.992C107.507 72.012 106.591 74.017 106.608 75.931Z" fill="white"/>
<path d="M126.008 75.639C126.044 79.362 123.481 81.009 121.047 81.033C118.323 81.059 116.204 79.084 116.173 75.901C116.141 72.532 118.325 70.535 121.112 70.508C124.004 70.48 125.979 72.561 126.008 75.639ZM118.023 75.82C118.044 78.024 119.33 79.675 121.118 79.659C122.865 79.641 124.159 77.986 124.138 75.72C124.121 74.014 123.248 71.86 121.085 71.881C118.922 71.901 118.006 73.906 118.023 75.82Z" fill="white"/>
<path d="M136.915 65.883L137.032 78.05C137.041 78.944 137.071 79.962 137.139 80.649L135.496 80.665L135.396 78.919H135.354C134.803 80.048 133.584 80.912 131.941 80.929C129.508 80.952 127.617 78.911 127.587 75.854C127.534 72.506 129.594 70.427 132.047 70.404C133.586 70.389 134.633 71.107 135.099 71.913H135.14L135.082 65.903L136.915 65.883ZM135.169 74.698C135.167 74.469 135.144 74.157 135.078 73.929C134.797 72.766 133.789 71.82 132.416 71.833C130.523 71.851 129.417 73.525 129.438 75.75C129.459 77.788 130.472 79.464 132.448 79.444C133.676 79.432 134.791 78.61 135.11 77.235C135.171 76.984 135.188 76.735 135.185 76.443L135.169 74.698Z" fill="white"/>
<path d="M52.135 105.537C52.348 105.725 52.512 105.94 52.627 106.185C52.741 106.43 52.799 106.729 52.799 107.083C52.799 107.797 52.532 108.38 51.998 108.833C51.464 109.286 50.772 109.513 49.924 109.513C49.476 109.513 49.063 109.432 48.686 109.271C48.308 109.11 48.039 108.961 47.877 108.826L47.721 109.334H47.135L47.057 106.654H47.596C47.638 106.858 47.726 107.095 47.862 107.367C47.997 107.639 48.161 107.885 48.354 108.104C48.557 108.333 48.8 108.528 49.084 108.684C49.368 108.841 49.687 108.919 50.041 108.919C50.541 108.919 50.926 108.805 51.197 108.577C51.468 108.348 51.603 108.022 51.603 107.598C51.603 107.379 51.56 107.191 51.474 107.032C51.388 106.873 51.262 106.734 51.095 106.614C50.923 106.494 50.712 106.386 50.462 106.29C50.212 106.194 49.933 106.099 49.626 106.005C49.381 105.932 49.109 105.832 48.81 105.704C48.51 105.576 48.254 105.427 48.04 105.255C47.811 105.072 47.623 104.849 47.478 104.583C47.332 104.317 47.259 104.005 47.259 103.645C47.259 103.015 47.493 102.481 47.962 102.043C48.431 101.605 49.058 101.387 49.845 101.387C50.147 101.387 50.455 101.426 50.771 101.504C51.086 101.582 51.342 101.676 51.541 101.785L51.721 101.379H52.283L52.4 103.856H51.861C51.752 103.301 51.516 102.85 51.154 102.502C50.792 102.154 50.35 101.981 49.83 101.981C49.403 101.981 49.067 102.088 48.822 102.303C48.577 102.518 48.455 102.778 48.455 103.082C48.455 103.316 48.495 103.512 48.576 103.668C48.657 103.824 48.778 103.957 48.939 104.066C49.095 104.17 49.292 104.268 49.529 104.359C49.766 104.45 50.059 104.553 50.408 104.668C50.752 104.777 51.076 104.905 51.381 105.051C51.686 105.197 51.937 105.36 52.135 105.537Z" fill="#7BB242"/>
<path d="M57.698 109.311H53.979V108.795C54.099 108.784 54.222 108.774 54.35 108.764C54.477 108.753 54.588 108.733 54.682 108.702C54.828 108.655 54.936 108.573 55.006 108.456C55.076 108.339 55.111 108.187 55.111 108V103.248C55.111 103.081 55.073 102.929 54.998 102.791C54.922 102.653 54.817 102.537 54.682 102.444C54.583 102.382 54.44 102.328 54.252 102.284C54.064 102.24 53.893 102.213 53.736 102.202V101.686L56.455 101.514L56.564 101.623V107.904C56.564 108.087 56.599 108.237 56.668 108.357C56.738 108.477 56.848 108.565 56.998 108.623C57.112 108.67 57.223 108.708 57.331 108.736C57.439 108.764 57.561 108.784 57.696 108.795V109.311H57.698ZM56.721 98.475C56.721 98.772 56.623 99.031 56.428 99.252C56.233 99.473 55.991 99.584 55.705 99.584C55.439 99.584 55.209 99.479 55.014 99.268C54.819 99.057 54.721 98.816 54.721 98.545C54.721 98.259 54.819 98.009 55.014 97.795C55.209 97.581 55.44 97.475 55.705 97.475C56.002 97.475 56.245 97.576 56.435 97.776C56.626 97.976 56.721 98.209 56.721 98.475Z" fill="#7BB242"/>
<path d="M67.159 109.311H63.393V108.795C63.513 108.784 63.644 108.774 63.788 108.764C63.931 108.753 64.05 108.733 64.143 108.702C64.289 108.655 64.397 108.573 64.467 108.456C64.537 108.339 64.572 108.186 64.572 107.999V104.038C64.572 103.491 64.443 103.069 64.184 102.772C63.925 102.475 63.611 102.327 63.241 102.327C62.964 102.327 62.711 102.37 62.481 102.456C62.251 102.542 62.047 102.647 61.87 102.772C61.698 102.892 61.561 103.021 61.459 103.159C61.357 103.297 61.283 103.408 61.236 103.491V107.921C61.236 108.098 61.272 108.244 61.345 108.359C61.418 108.473 61.527 108.562 61.673 108.625C61.782 108.677 61.901 108.716 62.028 108.742C62.155 108.768 62.287 108.786 62.423 108.797V109.313H58.65V108.797C58.77 108.786 58.893 108.776 59.021 108.766C59.148 108.755 59.259 108.735 59.353 108.704C59.499 108.657 59.607 108.575 59.677 108.458C59.747 108.341 59.782 108.189 59.782 108.002V103.25C59.782 103.072 59.744 102.91 59.669 102.762C59.593 102.614 59.488 102.493 59.353 102.4C59.254 102.338 59.137 102.292 59.001 102.263C58.865 102.235 58.72 102.215 58.563 102.204V101.688L61.125 101.516L61.234 101.625V102.711H61.273C61.398 102.586 61.554 102.437 61.742 102.262C61.93 102.087 62.106 101.946 62.273 101.836C62.465 101.711 62.695 101.607 62.961 101.524C63.227 101.441 63.526 101.399 63.859 101.399C64.598 101.399 65.147 101.629 65.504 102.09C65.86 102.551 66.039 103.164 66.039 103.93V107.938C66.039 108.121 66.07 108.267 66.133 108.379C66.196 108.491 66.302 108.578 66.453 108.641C66.578 108.693 66.686 108.73 66.777 108.75C66.868 108.771 66.994 108.786 67.156 108.797V109.311H67.159Z" fill="#7BB242"/>
<path d="M71.667 109.514C70.552 109.514 69.68 109.144 69.05 108.405C68.42 107.666 68.105 106.674 68.105 105.428C68.105 104.886 68.189 104.38 68.359 103.908C68.528 103.436 68.774 103.009 69.097 102.623C69.404 102.253 69.789 101.955 70.253 101.728C70.716 101.501 71.222 101.388 71.769 101.388C72.524 101.388 73.139 101.569 73.613 101.931C74.087 102.293 74.324 102.786 74.324 103.411C74.324 103.672 74.262 103.902 74.136 104.102C74.01 104.302 73.805 104.403 73.519 104.403C73.211 104.403 72.973 104.325 72.804 104.17C72.635 104.014 72.55 103.84 72.55 103.648C72.55 103.415 72.581 103.174 72.644 102.928C72.706 102.681 72.743 102.5 72.753 102.386C72.659 102.226 72.521 102.117 72.336 102.064C72.151 102.009 71.953 101.982 71.74 101.982C71.49 101.982 71.253 102.036 71.027 102.142C70.801 102.248 70.581 102.446 70.368 102.732C70.176 102.993 70.02 103.344 69.901 103.787C69.782 104.23 69.722 104.759 69.722 105.373C69.722 106.342 69.936 107.132 70.366 107.744C70.795 108.356 71.358 108.662 72.054 108.662C72.559 108.662 72.981 108.539 73.322 108.293C73.663 108.047 73.979 107.678 74.27 107.186L74.769 107.514C74.425 108.128 73.972 108.616 73.41 108.975C72.848 109.334 72.265 109.514 71.667 109.514Z" fill="#7BB242"/>
<path d="M82.214 107.498C81.891 108.112 81.459 108.602 80.917 108.967C80.375 109.331 79.753 109.514 79.05 109.514C78.43 109.514 77.887 109.405 77.421 109.186C76.955 108.967 76.57 108.67 76.269 108.295C75.967 107.92 75.742 107.483 75.593 106.983C75.444 106.483 75.37 105.955 75.37 105.397C75.37 104.897 75.449 104.406 75.608 103.924C75.767 103.443 76 103.009 76.307 102.623C76.604 102.253 76.972 101.955 77.412 101.728C77.852 101.501 78.346 101.388 78.892 101.388C79.454 101.388 79.936 101.477 80.337 101.654C80.738 101.831 81.064 102.073 81.314 102.381C81.553 102.673 81.732 103.017 81.849 103.412C81.966 103.807 82.025 104.237 82.025 104.701V105.217H76.923C76.923 105.723 76.971 106.183 77.068 106.595C77.164 107.007 77.317 107.37 77.525 107.684C77.728 107.987 77.994 108.225 78.322 108.4C78.65 108.575 79.041 108.663 79.494 108.663C79.957 108.663 80.357 108.555 80.693 108.337C81.029 108.12 81.353 107.729 81.666 107.163L82.214 107.498ZM80.487 104.561C80.487 104.27 80.462 103.958 80.413 103.626C80.363 103.294 80.284 103.016 80.175 102.792C80.055 102.554 79.891 102.358 79.683 102.208C79.475 102.058 79.206 101.982 78.878 101.982C78.331 101.982 77.877 102.209 77.515 102.664C77.153 103.118 76.956 103.75 76.925 104.56L80.487 104.561Z" fill="#7BB242"/>
<path d="M88.862 109.311H83.596V108.756C83.752 108.745 83.995 108.724 84.326 108.69C84.657 108.656 84.885 108.621 85.01 108.585C85.171 108.533 85.295 108.448 85.381 108.331C85.467 108.214 85.51 108.038 85.51 107.804V102.32H83.565V101.664H83.995C84.557 101.664 85.061 101.56 85.507 101.352C85.953 101.144 86.272 100.919 86.464 100.68H87.112C87.096 101.019 87.081 101.414 87.065 101.868C87.049 102.322 87.042 102.727 87.042 103.087V107.72C87.042 107.903 87.082 108.065 87.163 108.208C87.244 108.351 87.359 108.457 87.511 108.524C87.647 108.582 87.867 108.633 88.175 108.68C88.483 108.727 88.711 108.753 88.863 108.758L88.862 109.311Z" fill="#7BB242"/>
<path d="M97.667 105.284C97.667 106.189 97.523 107.042 97.237 107.841C96.951 108.64 96.539 109.341 96.003 109.945C95.477 110.539 94.835 111.032 94.077 111.424C93.319 111.818 92.472 112.076 91.534 112.201L91.393 111.498L92.096 111.373C93.216 111.019 94.091 110.475 94.721 109.74C95.351 109.007 95.757 108.074 95.94 106.944C95.513 107.308 95.087 107.575 94.663 107.744C94.239 107.913 93.761 107.998 93.229 107.998C92.38 107.998 91.642 107.668 91.014 107.007C90.386 106.346 90.073 105.514 90.073 104.51C90.073 103.433 90.436 102.525 91.163 101.786C91.89 101.047 92.787 100.678 93.854 100.678C95.015 100.678 95.941 101.092 96.631 101.919C97.321 102.746 97.667 103.868 97.667 105.284ZM96.01 105.193C96.01 103.974 95.811 103.02 95.412 102.33C95.013 101.64 94.489 101.295 93.838 101.295C93.218 101.295 92.718 101.562 92.338 102.096C91.958 102.63 91.768 103.366 91.768 104.303C91.768 105.147 91.962 105.824 92.35 106.334C92.738 106.844 93.257 107.1 93.909 107.1C94.315 107.1 94.687 107.026 95.026 106.877C95.365 106.728 95.679 106.49 95.971 106.162C95.971 106.141 95.975 106.1 95.983 106.037C95.991 105.974 95.995 105.886 95.995 105.771C95.995 105.698 95.998 105.61 96.003 105.505C96.008 105.4 96.01 105.298 96.01 105.193Z" fill="#7BB242"/>
<path d="M107.198 106.373C107.198 107.248 106.82 108.001 106.065 108.631C105.31 109.261 104.318 109.576 103.088 109.576C101.937 109.576 101.015 109.287 100.322 108.709C99.629 108.131 99.283 107.386 99.283 106.475C99.283 105.803 99.487 105.242 99.896 104.791C100.305 104.34 100.911 103.959 101.712 103.646C101.051 103.276 100.556 102.87 100.228 102.427C99.9 101.984 99.736 101.485 99.736 100.927C99.736 100.078 100.096 99.367 100.818 98.794C101.54 98.221 102.403 97.935 103.408 97.935C104.413 97.935 105.227 98.206 105.849 98.747C106.471 99.288 106.783 99.969 106.783 100.786C106.783 101.312 106.611 101.81 106.267 102.282C105.923 102.754 105.418 103.14 104.751 103.442C105.615 103.812 106.239 104.22 106.622 104.669C107.005 105.118 107.198 105.686 107.198 106.373ZM105.635 106.74C105.635 106.412 105.565 106.124 105.424 105.877C105.283 105.63 105.08 105.404 104.815 105.201C104.56 105.003 104.205 104.796 103.749 104.58C103.293 104.364 102.8 104.143 102.269 103.92C101.769 104.191 101.402 104.536 101.167 104.955C100.932 105.374 100.815 105.852 100.815 106.389C100.815 107.155 101.041 107.773 101.491 108.244C101.941 108.715 102.542 108.951 103.292 108.951C104.011 108.951 104.581 108.743 105.003 108.326C105.425 107.909 105.635 107.381 105.635 106.74ZM105.307 100.701C105.307 100.065 105.119 99.549 104.741 99.15C104.363 98.751 103.881 98.552 103.292 98.552C102.703 98.552 102.222 98.743 101.847 99.126C101.472 99.509 101.285 99.984 101.285 100.552C101.285 101.099 101.499 101.563 101.926 101.943C102.353 102.323 103.114 102.729 104.207 103.162C104.598 102.912 104.879 102.581 105.051 102.17C105.223 101.759 105.307 101.269 105.307 100.701Z" fill="#7BB242"/>
<path d="M114.596 105.647C114.94 105.918 115.225 106.267 115.451 106.694C115.677 107.121 115.791 107.655 115.791 108.296C115.791 109.415 115.408 110.34 114.643 111.069C113.877 111.798 112.906 112.163 111.729 112.163C110.818 112.163 110.046 111.946 109.417 111.515C108.787 111.082 108.472 110.579 108.472 110.007C108.472 109.741 108.537 109.509 108.667 109.312C108.797 109.114 108.998 109.015 109.269 109.015C109.581 109.015 109.82 109.097 109.984 109.261C110.148 109.425 110.23 109.603 110.23 109.796C110.23 109.962 110.202 110.171 110.144 110.421C110.086 110.671 110.042 110.856 110.011 110.976C110.053 111.012 110.12 111.062 110.214 111.124C110.308 111.186 110.42 111.246 110.55 111.304C110.686 111.361 110.851 111.411 111.046 111.456C111.241 111.5 111.469 111.522 111.73 111.522C112.063 111.522 112.378 111.454 112.675 111.319C112.972 111.183 113.222 110.983 113.425 110.717C113.649 110.425 113.817 110.093 113.929 109.721C114.041 109.348 114.097 108.876 114.097 108.303C114.097 107.569 113.893 106.96 113.484 106.479C113.075 105.998 112.538 105.756 111.871 105.756C111.454 105.756 111.065 105.834 110.703 105.99C110.341 106.146 110.016 106.407 109.73 106.771L109.207 106.568L109.871 100.927H115.465V102.318H110.502L110.096 105.631C110.33 105.464 110.64 105.299 111.023 105.134C111.406 104.97 111.827 104.888 112.285 104.888C112.666 104.888 113.06 104.947 113.469 105.064C113.876 105.182 114.253 105.376 114.596 105.647Z" fill="#7BB242"/>
<path d="M55.681 113.689C59.975 112.757 64.237 112.136 68.551 111.67C72.858 111.223 77.183 110.966 81.511 110.974C85.839 111.02 90.165 111.303 94.44 111.962C98.704 112.694 102.903 113.805 106.878 115.49C106.941 115.517 106.971 115.59 106.944 115.654C106.918 115.716 106.844 115.744 106.782 115.721C102.761 114.218 98.566 113.301 94.329 112.758C90.079 112.288 85.801 112.193 81.534 112.331C77.266 112.506 73.013 112.943 68.792 113.565C64.583 114.201 60.355 115.009 56.289 116.077L56.255 116.086C55.597 116.259 54.923 115.865 54.75 115.207C54.577 114.549 54.971 113.875 55.629 113.702C55.645 113.697 55.666 113.692 55.681 113.689Z" fill="#915341"/>
<mask id="mask0_3_569" style="mask-type:luminance" maskUnits="userSpaceOnUse" x="36" y="13" width="87" height="47">
<path d="M79.616 13.922C54.89 13.828 35.494 35.001 36.979 59.543H122.252C123.738 35 104.341 13.828 79.616 13.922Z" fill="white"/>
</mask>
<g mask="url(#mask0_3_569)">
<path d="M82.663 24.917C73.458 28.834 73.055 43.393 82.031 47.815C82.033 47.815 82.649 29.937 82.655 29.939L82.663 24.917Z" fill="#7BB242"/>
<path d="M82.654 29.938C82.66 29.935 83.215 47.816 83.217 47.816C92.21 43.423 91.852 28.864 82.662 24.916L82.654 29.938Z" fill="#87C447"/>
<path d="M106.191 41.217C93.976 36.63 80.494 50.009 84.985 62.261C84.988 62.262 101.659 45.943 101.663 45.949L106.191 41.217Z" fill="#7BB242"/>
<path d="M101.663 45.949C101.671 45.951 86.101 63.329 86.103 63.331C98.545 67.279 111.311 53.215 106.19 41.217L101.663 45.949Z" fill="#87C447"/>
<path d="M98.529 29.789C93.4 28.976 89.212 35.269 91.941 39.687L97.14 31.996L98.529 29.789Z" fill="#EE7B25"/>
<path d="M97.141 31.996C97.142 31.996 97.142 31.997 97.141 31.996L92.462 40.015C97.628 40.561 101.483 34.058 98.528 29.789L97.141 31.996Z" fill="#F7913D"/>
<path d="M118.798 53.183C115.533 49.145 108.209 51.015 107.278 56.124L116.29 53.892L118.798 53.183Z" fill="#EE7B25"/>
<path d="M116.29 53.893L107.446 56.717C110.918 60.581 118.135 58.332 118.798 53.183L116.29 53.893Z" fill="#F7913D"/>
<path d="M106.436 34.152C107.262 37.09 103.876 39.967 101.11 38.676L105.243 35.114L106.436 34.152Z" fill="#87C447"/>
<path d="M105.243 35.114L100.883 38.395C100.21 35.417 103.742 32.721 106.436 34.153L105.243 35.114Z" fill="#7BB242"/>
<path d="M115.1 44.875C115.497 47.901 111.733 50.262 109.18 48.589L113.781 45.656L115.1 44.875Z" fill="#87C447"/>
<path d="M113.782 45.656L108.996 48.278C108.757 45.234 112.639 43.072 115.1 44.876L113.782 45.656Z" fill="#7BB242"/>
<path d="M58.603 41.217C70.818 36.63 84.3 50.009 79.809 62.261C79.806 62.262 63.135 45.943 63.131 45.949L58.603 41.217Z" fill="#87C447"/>
<path d="M63.131 45.949C63.123 45.951 78.693 63.329 78.691 63.331C66.249 67.279 53.483 53.215 58.604 41.217L63.131 45.949Z" fill="#7BB242"/>
<path d="M66.265 29.789C71.394 28.976 75.582 35.269 72.853 39.687L67.654 31.996L66.265 29.789Z" fill="#F7913D"/>
<path d="M67.653 31.996C67.652 31.996 67.652 31.997 67.653 31.996L72.332 40.015C67.166 40.561 63.311 34.058 66.266 29.789L67.653 31.996Z" fill="#EE7B25"/>
<path d="M45.996 53.183C49.261 49.145 56.585 51.015 57.516 56.124L48.504 53.892L45.996 53.183Z" fill="#F7913D"/>
<path d="M48.504 53.893L57.348 56.717C53.876 60.581 46.659 58.332 45.996 53.183L48.504 53.893Z" fill="#EE7B25"/>
<path d="M58.358 34.152C57.531 37.09 60.918 39.967 63.684 38.676L59.551 35.114L58.358 34.152Z" fill="#7BB242"/>
<path d="M59.551 35.114L63.911 38.395C64.584 35.417 61.052 32.721 58.358 34.153L59.551 35.114Z" fill="#87C447"/>
<path d="M49.694 44.875C49.297 47.901 53.061 50.262 55.614 48.589L51.013 45.656L49.694 44.875Z" fill="#7BB242"/>
<path d="M51.012 45.656L55.798 48.278C56.037 45.234 52.155 43.072 49.694 44.876L51.012 45.656Z" fill="#87C447"/>
</g>
</svg>
