<svg width="21" height="21" viewBox="0 0 21 21" fill="none" xmlns="http://www.w3.org/2000/svg">
<g clip-path="url(#clip0_40_4124)">
<path d="M15.0117 6.97266C15.1681 7.03859 15.3133 7.12157 15.4603 7.20594C15.5486 7.25525 15.637 7.30454 15.7253 7.35382C15.7703 7.37916 15.8153 7.40451 15.8616 7.43062C16.0699 7.5472 16.2805 7.65957 16.4908 7.77246C16.8144 7.94709 17.1353 8.12604 17.4547 8.30823C17.8035 8.50715 18.1568 8.69533 18.5137 8.87927C18.829 9.04259 19.1381 9.21545 19.4463 9.39184C19.6635 9.51577 19.882 9.63695 20.1026 9.75467C20.1393 9.77425 20.1393 9.77425 20.1767 9.79422C20.2959 9.85781 20.4153 9.92109 20.5349 9.984C20.5778 10.0068 20.6206 10.0295 20.6648 10.053C20.7028 10.073 20.7409 10.093 20.78 10.1137C20.8741 10.1702 20.933 10.2087 21 10.2949C21.0157 10.4018 21.0157 10.4018 21.0162 10.5328C21.0166 10.5825 21.0171 10.6321 21.0176 10.6832C21.0175 10.7383 21.0173 10.7934 21.0172 10.8485C21.0175 10.9064 21.0179 10.9643 21.0183 11.0223C21.0192 11.1797 21.0193 11.3372 21.0192 11.4946C21.0192 11.626 21.0196 11.7574 21.0199 11.8888C21.0207 12.1987 21.0208 12.5087 21.0205 12.8186C21.0203 13.1385 21.0212 13.4583 21.0227 13.7782C21.024 14.0527 21.0244 14.3272 21.0243 14.6018C21.0242 14.7658 21.0244 14.9298 21.0254 15.0938C21.0263 15.248 21.0263 15.4022 21.0254 15.5564C21.0253 15.613 21.0255 15.6697 21.0261 15.7263C21.0268 15.8035 21.0262 15.8808 21.0255 15.958C21.0255 16.0013 21.0255 16.0445 21.0256 16.0891C20.9908 16.2414 20.9231 16.2812 20.7949 16.3652C20.7006 16.4196 20.6067 16.4712 20.5102 16.5211C20.4827 16.5356 20.4552 16.5501 20.4268 16.565C20.3368 16.6122 20.2467 16.6592 20.1566 16.7062C20.0613 16.7562 19.9661 16.8062 19.8708 16.8563C19.8064 16.8901 19.7421 16.9239 19.6777 16.9577C19.3929 17.1071 19.1094 17.2588 18.8262 17.4111C18.3736 17.6542 17.9198 17.8949 17.4657 18.1349C17.0807 18.3385 16.6961 18.5428 16.3124 18.7487C16.2407 18.7871 16.1691 18.8254 16.0974 18.8638C15.8948 18.9721 15.6925 19.081 15.4916 19.1924C15.4432 19.2189 15.4432 19.2189 15.3939 19.2459C15.3366 19.2774 15.2795 19.3092 15.2227 19.3415C15.0603 19.43 14.9492 19.4577 14.7656 19.4414C14.6541 19.3903 14.6541 19.3903 14.54 19.318C14.4973 19.2914 14.4546 19.2647 14.4107 19.2373C14.3654 19.2082 14.3201 19.1791 14.2734 19.1492C14.2258 19.1191 14.1781 19.0891 14.1303 19.0592C14.0092 18.983 13.8885 18.9061 13.7679 18.829C13.6641 18.7627 13.56 18.6969 13.4558 18.631C13.3067 18.5365 13.1577 18.4416 13.009 18.3465C12.8063 18.2168 12.603 18.0881 12.3995 17.9597C12.3677 17.9396 12.3358 17.9195 12.303 17.8988C12.2394 17.8587 12.1757 17.8186 12.1121 17.7784C12.0182 17.7191 11.9243 17.6598 11.8304 17.6004C11.4697 17.3721 11.1082 17.145 10.7461 16.9189C10.3804 16.6906 10.015 16.462 9.65115 16.2308C9.53574 16.1575 9.41976 16.0853 9.30316 16.0139C9.26328 15.9891 9.26328 15.9891 9.22259 15.9639C9.1521 15.9201 9.08137 15.8768 9.01061 15.8335C8.86652 15.7244 8.78842 15.621 8.76196 15.4396C8.76197 15.4019 8.76197 15.3642 8.76198 15.3254C8.76169 15.282 8.7614 15.2385 8.76111 15.1937C8.76142 15.1465 8.76174 15.0992 8.76206 15.0505C8.76191 15.0004 8.76176 14.9503 8.7616 14.8987C8.76133 14.7615 8.7616 14.6244 8.76215 14.4873C8.76262 14.3437 8.76245 14.2 8.76237 14.0564C8.76233 13.8151 8.76278 13.5739 8.76354 13.3327C8.76441 13.054 8.76455 12.7754 8.7643 12.4967C8.76406 12.2284 8.7643 11.96 8.76476 11.6917C8.76495 11.5776 8.76498 11.4635 8.76489 11.3495C8.7648 11.1901 8.7654 11.0307 8.76606 10.8714C8.76596 10.8241 8.76586 10.7769 8.76576 10.7282C8.76605 10.6847 8.76634 10.6412 8.76664 10.5964C8.76672 10.5588 8.76681 10.5211 8.76689 10.4823C8.78209 10.3289 8.81653 10.2103 8.93271 10.1061C9.17156 9.95657 9.41563 9.82268 9.66686 9.69507C9.98341 9.5321 10.2981 9.36657 10.6102 9.19519C10.9502 9.00874 11.2912 8.82437 11.633 8.64148C11.6571 8.62859 11.6813 8.61569 11.7061 8.6024C11.8291 8.5366 11.9521 8.47083 12.0751 8.40506C12.363 8.25117 12.6506 8.09694 12.9383 7.94276C13.1623 7.82271 13.3864 7.70272 13.6106 7.58297C13.7164 7.52647 13.8221 7.46993 13.9279 7.41339C13.9782 7.38647 14.0286 7.35957 14.079 7.3327C14.1489 7.2954 14.2188 7.25804 14.2886 7.22068C14.3284 7.19946 14.3681 7.17825 14.409 7.15639C14.4833 7.11557 14.5565 7.07263 14.6285 7.02776C14.7703 6.94646 14.8491 6.94985 15.0117 6.97266ZM14.6692 7.79345C14.6167 7.81982 14.6167 7.81982 14.5633 7.84672C14.5268 7.86536 14.4904 7.884 14.4529 7.9032C14.4174 7.92104 14.3819 7.93889 14.3454 7.95727C14.1131 8.07477 13.8847 8.19808 13.6582 8.32617C13.6582 8.35324 13.6582 8.38031 13.6582 8.40821C13.7029 8.43287 13.7029 8.43287 13.7485 8.45803C13.8146 8.49449 13.8807 8.53095 13.9467 8.56741C14.0781 8.63987 14.2094 8.71232 14.3407 8.78477C14.6128 8.93486 14.8849 9.08503 15.1569 9.23541C15.6634 9.51541 16.1707 9.79382 16.6799 10.0688C16.9194 10.1982 17.158 10.329 17.3957 10.4616C17.4245 10.4775 17.4532 10.4934 17.4828 10.5098C17.6554 10.6055 17.8272 10.7025 17.9986 10.8002C18.0805 10.8463 18.1624 10.8923 18.2442 10.9384C18.302 10.9717 18.302 10.9717 18.3608 11.0057C18.3971 11.026 18.4333 11.0462 18.4706 11.067C18.5187 11.0943 18.5187 11.0943 18.5677 11.1222C18.7138 11.1749 18.8147 11.1393 18.9524 11.0762C18.9799 11.0605 19.0074 11.0449 19.0357 11.0287C19.0667 11.0113 19.0977 10.9938 19.1296 10.9758C19.1614 10.9576 19.1933 10.9393 19.2261 10.9204C19.2891 10.8847 19.3521 10.8491 19.4151 10.8134C19.4461 10.7957 19.4771 10.778 19.5091 10.7598C19.6636 10.6721 19.8191 10.586 19.9746 10.5C19.8798 10.3953 19.7832 10.3333 19.6588 10.267C19.6004 10.2357 19.6004 10.2357 19.5408 10.2037C19.4776 10.1702 19.4776 10.1702 19.4132 10.136C19.3234 10.0879 19.2336 10.0398 19.1439 9.99163C19.0979 9.96707 19.0519 9.9425 19.0045 9.91719C18.7925 9.8038 18.5812 9.6892 18.3699 9.57459C18.3291 9.55252 18.2884 9.53045 18.2464 9.50772C17.9374 9.34034 17.6288 9.17215 17.3204 9.00372C17.0433 8.85248 16.7659 8.70199 16.4883 8.55176C16.1557 8.37172 15.8232 8.19157 15.4911 8.01087C15.4529 7.99014 15.4147 7.96942 15.3753 7.94806C15.3401 7.92887 15.3048 7.90968 15.2685 7.8899C15.2376 7.87311 15.2067 7.85631 15.1749 7.839C15.105 7.79937 15.0375 7.75551 14.9707 7.71094C14.8377 7.71094 14.7859 7.73437 14.6692 7.79345ZM12.5648 8.89775C12.5339 8.91639 12.5031 8.93502 12.4713 8.95423C12.4234 8.98147 12.4234 8.98147 12.3744 9.00926C12.2959 9.05408 12.2181 9.0998 12.1406 9.14649C12.2662 9.24609 12.3958 9.32235 12.5373 9.39739C12.5835 9.42201 12.6298 9.44662 12.6774 9.47199C12.7018 9.48494 12.7263 9.49789 12.7515 9.51123C12.8552 9.56612 12.9587 9.62131 13.0623 9.67648C13.1154 9.70478 13.1685 9.73305 13.2216 9.76131C13.4669 9.89188 13.7113 10.0239 13.9556 10.1565C13.9955 10.1781 14.0354 10.1998 14.0765 10.2221C14.1567 10.2656 14.2369 10.3091 14.3171 10.3526C14.5212 10.4634 14.7254 10.574 14.9297 10.6846C15.0117 10.729 15.0937 10.7734 15.1758 10.8179C15.2164 10.8399 15.257 10.8619 15.2988 10.8845C15.4219 10.9512 15.5449 11.0178 15.668 11.0845C15.7086 11.1065 15.7493 11.1285 15.7912 11.1512C15.8726 11.1953 15.9539 11.2394 16.0353 11.2835C16.2504 11.4001 16.4656 11.5164 16.6812 11.6321C16.7261 11.6563 16.771 11.6805 16.8174 11.7054C16.9036 11.7518 16.9899 11.7981 17.0763 11.8443C17.1151 11.8652 17.1539 11.8861 17.1939 11.9077C17.228 11.926 17.2621 11.9443 17.2972 11.9631C17.3281 11.9811 17.3589 11.9991 17.3906 12.0176C17.4212 12.0329 17.4518 12.0482 17.4834 12.0639C17.5984 12.1876 17.5794 12.3332 17.5797 12.4936C17.5803 12.528 17.581 12.5624 17.5817 12.5979C17.5837 12.7078 17.5846 12.8177 17.5854 12.9276C17.5866 13.0021 17.5878 13.0767 17.5891 13.1512C17.5922 13.3339 17.5942 13.5165 17.5957 13.6992C17.8511 13.597 18.0917 13.4605 18.334 13.3301C18.334 12.8157 18.334 12.3014 18.334 11.7715C17.4871 11.3031 17.4871 11.3031 16.6369 10.8409C16.322 10.6712 16.0095 10.4977 15.6987 10.3206C15.3257 10.108 14.9486 9.90387 14.5696 9.70244C14.185 9.49796 13.8045 9.28727 13.4272 9.0695C13.3575 9.02953 13.2875 8.99008 13.2172 8.95131C13.16 8.91975 13.1036 8.88695 13.0483 8.85228C12.8538 8.74341 12.7446 8.79734 12.5648 8.89775ZM11.0694 9.7034C11.0409 9.71849 11.0125 9.73358 10.9831 9.74912C10.9229 9.78114 10.8627 9.81328 10.8025 9.84553C10.711 9.89459 10.6192 9.94314 10.5274 9.99163C10.4688 10.0228 10.4102 10.0541 10.3516 10.0854C10.3244 10.0998 10.2971 10.1142 10.269 10.129C10.114 10.2126 9.97829 10.3029 9.84374 10.418C10.1238 10.5879 10.4066 10.7522 10.6922 10.9127C10.7757 10.9598 10.8592 11.0068 10.9427 11.0539C11.0061 11.0896 11.0061 11.0896 11.0707 11.126C11.2703 11.2384 11.4696 11.3511 11.6689 11.4639C11.7475 11.5083 11.8262 11.5527 11.9048 11.5972C12.062 11.686 12.2192 11.7749 12.3764 11.8638C12.4154 11.8858 12.4543 11.9078 12.4944 11.9304C12.5729 11.9748 12.6514 12.0192 12.7298 12.0635C12.9284 12.1758 13.1269 12.2879 13.3256 12.3999C13.3654 12.4223 13.4052 12.4448 13.4462 12.4679C13.5253 12.5125 13.6044 12.557 13.6836 12.6014C13.8745 12.7089 14.0639 12.8182 14.2512 12.9321C14.2865 12.9534 14.3219 12.9746 14.3583 12.9966C14.4245 13.0366 14.4904 13.0772 14.5559 13.1184C14.5854 13.1361 14.6149 13.1538 14.6453 13.1721C14.6706 13.1878 14.696 13.2036 14.7221 13.2198C14.8878 13.2752 15.0235 13.2207 15.1765 13.1492C15.2192 13.1249 15.262 13.1006 15.306 13.0757C15.3294 13.0625 15.3527 13.0494 15.3768 13.0359C15.451 12.9942 15.5249 12.9519 15.5987 12.9097C15.6478 12.8819 15.6969 12.8542 15.7461 12.8265C15.8408 12.7731 15.9353 12.7195 16.0298 12.6657C16.1957 12.5716 16.3623 12.4789 16.5293 12.3867C16.5293 12.3597 16.5293 12.3326 16.5293 12.3047C16.4969 12.2876 16.4646 12.2705 16.4313 12.2529C15.3443 11.6778 15.3443 11.6778 14.8271 11.3818C14.4424 11.1617 14.0526 10.9525 13.6609 10.7451C13.311 10.5598 12.964 10.3706 12.62 10.1744C12.342 10.0161 12.0636 9.85907 11.7817 9.70789C11.7531 9.69232 11.7245 9.67675 11.695 9.66071C11.4321 9.52116 11.3192 9.56918 11.0694 9.7034ZM9.43358 10.9512C9.41452 11.5034 9.39997 12.0556 9.39108 12.6081C9.38681 12.8647 9.38102 13.1211 9.3717 13.3776C9.36274 13.6255 9.35787 13.8731 9.35575 14.1212C9.35424 14.2154 9.3513 14.3097 9.34685 14.4039C9.31123 14.9072 9.31123 14.9072 9.51181 15.3481C9.70554 15.5115 9.9195 15.6276 10.147 15.7372C10.3188 15.8237 10.4778 15.9292 10.6384 16.0345C10.7028 16.0751 10.7672 16.1157 10.8316 16.1562C11.0497 16.2934 11.267 16.4318 11.4844 16.5703C11.8939 16.8311 12.3042 17.0906 12.7148 17.3496C12.8422 17.4299 12.9695 17.5102 13.0968 17.5906C13.1281 17.6103 13.1595 17.6301 13.1918 17.6505C13.3748 17.766 13.5573 17.8822 13.7394 17.999C13.7805 18.0253 13.8216 18.0516 13.8639 18.0787C13.9442 18.1301 14.0243 18.1816 14.1044 18.2333C14.1407 18.2565 14.1771 18.2798 14.2145 18.3037C14.2467 18.3244 14.2789 18.3451 14.312 18.3665C14.3996 18.4218 14.3996 18.4218 14.5195 18.457C14.5358 17.8599 14.5481 17.2627 14.5556 16.6654C14.5592 16.388 14.5641 16.1107 14.5721 15.8334C14.5798 15.5656 14.5839 15.2979 14.5857 15.03C14.587 14.928 14.5895 14.8259 14.5932 14.724C14.634 14.2045 14.634 14.2045 14.4519 13.7401C14.2874 13.6037 14.1065 13.5197 13.9075 13.4454C13.7844 13.3973 13.6764 13.3328 13.563 13.2652C13.4837 13.221 13.4043 13.1768 13.3249 13.1327C13.2365 13.0834 13.148 13.034 13.0596 12.9847C12.9939 12.948 12.9939 12.948 12.9268 12.9106C12.7242 12.7973 12.5221 12.6831 12.3201 12.5687C12.2815 12.5469 12.2429 12.5251 12.2032 12.5026C12.1255 12.4586 12.0478 12.4147 11.9701 12.3707C11.8134 12.282 11.6566 12.1934 11.4998 12.1048C11.4215 12.0605 11.3432 12.0162 11.2649 11.972C11.0628 11.8577 10.8607 11.7436 10.6584 11.6295C10.5757 11.5829 10.493 11.5362 10.4103 11.4895C10.3708 11.4673 10.3314 11.445 10.2908 11.4221C10.0434 11.2823 9.79732 11.1406 9.5531 10.9952C9.48364 10.9478 9.48364 10.9478 9.43358 10.9512ZM20.1143 11.1747C20.0754 11.196 20.0365 11.2172 19.9964 11.2392C19.9554 11.2617 19.9143 11.2843 19.8721 11.3075C19.8323 11.3293 19.7925 11.351 19.7516 11.3734C19.6344 11.4376 19.5173 11.5019 19.4004 11.5664C19.369 11.5794 19.3376 11.5923 19.3052 11.6057C19.1109 11.6896 19.1109 11.6896 18.9978 11.858C18.9851 11.9666 18.9844 12.0698 18.9877 12.1791C18.9874 12.2184 18.9871 12.2576 18.9868 12.2981C18.9862 12.4234 18.9881 12.5485 18.9902 12.6738C18.9906 12.7991 18.9904 12.9243 18.9901 13.0495C18.9902 13.1274 18.9907 13.2052 18.9917 13.283C18.9957 13.6666 18.9957 13.6666 18.9492 13.7813C18.858 13.8277 18.858 13.8277 18.7441 13.8633C18.6695 13.9014 18.5954 13.9406 18.5217 13.9807C18.4797 14.0036 18.4376 14.0265 18.3942 14.05C18.3506 14.0738 18.3071 14.0977 18.2622 14.1222C18.2193 14.1455 18.1763 14.1689 18.1321 14.1929C17.8906 14.3241 17.8906 14.3241 17.6509 14.4588C17.6184 14.4774 17.5859 14.496 17.5524 14.5152C17.5243 14.5316 17.4962 14.548 17.4672 14.5648C17.3091 14.6407 17.1813 14.6138 17.0215 14.5605C16.9621 14.3997 16.9712 14.227 16.9675 14.0575C16.9666 14.0249 16.9658 13.9924 16.9649 13.9589C16.9622 13.8552 16.9598 13.7516 16.9574 13.648C16.9556 13.5776 16.9538 13.5072 16.952 13.4368C16.9476 13.2645 16.9435 13.0922 16.9394 12.9199C16.5444 13.1304 16.1495 13.3413 15.7551 13.5531C15.7193 13.5723 15.7193 13.5723 15.6827 13.5919C15.6129 13.6292 15.5432 13.6667 15.4734 13.7042C15.4329 13.7259 15.3924 13.7477 15.3506 13.7701C15.2619 13.8145 15.2619 13.8145 15.2168 13.8633C15.2129 13.9235 15.2118 13.9839 15.2118 14.0442C15.2118 14.0832 15.2117 14.1223 15.2117 14.1625C15.2118 14.2057 15.212 14.2489 15.2121 14.2934C15.2121 14.3386 15.2121 14.3838 15.2121 14.4304C15.2121 14.5806 15.2125 14.7309 15.2128 14.8811C15.2129 14.985 15.2129 15.0889 15.213 15.1927C15.2131 15.4386 15.2134 15.6846 15.2138 15.9305C15.2143 16.2104 15.2145 16.4903 15.2147 16.7702C15.2151 17.3462 15.2159 17.9221 15.2168 18.498C15.3724 18.4473 15.5165 18.3938 15.6615 18.3176C15.7171 18.2886 15.7171 18.2886 15.7739 18.2589C15.8134 18.238 15.8528 18.2171 15.8935 18.1956C15.9566 18.1624 15.9566 18.1624 16.0209 18.1287C16.2877 17.9881 16.5524 17.844 16.8164 17.6982C17.2423 17.4633 17.6751 17.2425 18.1084 17.0215C18.6152 16.7629 19.1197 16.502 19.6173 16.226C19.8584 16.0927 20.1012 15.9626 20.3437 15.832C20.3437 14.262 20.3437 12.6919 20.3437 11.0742C20.262 11.0742 20.1837 11.1366 20.1143 11.1747Z" fill="white"/>
<path d="M7.81093 -0.0153828C7.86049 -0.0169161 7.91006 -0.0184494 7.96113 -0.0200291C8.55151 -0.0257211 9.00078 0.184795 9.43361 0.574217C9.79886 0.955246 10.0899 1.46665 10.0899 2.00976C10.1193 2.02066 10.1487 2.03155 10.1789 2.04277C10.7318 2.27642 11.2546 2.73968 11.5254 3.28125C11.5987 3.28147 11.5987 3.28147 11.6735 3.2817C12.134 3.28322 12.5945 3.28558 13.0549 3.28879C13.2917 3.29041 13.5284 3.29173 13.7652 3.29236C13.9936 3.29298 14.222 3.29439 14.4505 3.29635C14.5377 3.29696 14.6248 3.29729 14.712 3.29732C14.8341 3.29742 14.9561 3.29853 15.0782 3.29987C15.1323 3.29956 15.1323 3.29956 15.1875 3.29925C15.3477 3.30198 15.4443 3.31241 15.5879 3.38846C15.6944 3.51864 15.6935 3.59488 15.6932 3.76214C15.6934 3.7895 15.6937 3.81687 15.6939 3.84506C15.6944 3.93529 15.6934 4.02544 15.6923 4.11566C15.6923 4.17848 15.6923 4.24131 15.6923 4.30413C15.6923 4.43571 15.6915 4.56726 15.6902 4.69883C15.6886 4.86738 15.6884 5.03589 15.6887 5.20444C15.6888 5.33414 15.6883 5.46383 15.6876 5.59353C15.6874 5.65567 15.6872 5.71781 15.6873 5.77995C15.6872 5.86685 15.6863 5.9537 15.6852 6.04059C15.6849 6.09001 15.6845 6.13942 15.6842 6.19034C15.6667 6.32656 15.64 6.38328 15.5449 6.48047C15.4684 6.51123 15.4684 6.51123 15.386 6.52148C15.359 6.52571 15.3321 6.52994 15.3043 6.5343C15.1704 6.51468 15.1074 6.45071 15.0117 6.35742C14.9871 6.24738 14.9871 6.24738 14.9884 6.12042C14.9885 6.07214 14.9885 6.02386 14.9885 5.97412C14.9896 5.92359 14.9906 5.87307 14.9917 5.82101C14.9919 5.77441 14.9921 5.72781 14.9923 5.6798C14.9934 5.50576 14.9963 5.33174 14.9989 5.15771C15.0031 4.76858 15.0074 4.37944 15.0117 3.97851C13.9695 3.97851 12.9273 3.97851 11.8535 3.97851C11.8806 4.10033 11.9077 4.22215 11.9356 4.34765C11.9504 4.52372 11.9489 4.6991 11.9484 4.87573C11.949 4.92194 11.9497 4.96815 11.9504 5.01576C11.9504 5.05996 11.9504 5.10416 11.9505 5.1497C11.9506 5.20965 11.9506 5.20965 11.9508 5.27081C11.9356 5.37305 11.9356 5.37305 11.8808 5.44596C11.7275 5.55851 11.5626 5.54298 11.3815 5.54259C11.334 5.54273 11.334 5.54273 11.2856 5.54287C11.1792 5.54313 11.0729 5.5431 10.9665 5.54307C10.8904 5.54319 10.8142 5.54333 10.7381 5.54348C10.5311 5.54385 10.3241 5.54394 10.117 5.54397C9.94438 5.54401 9.7717 5.54416 9.59903 5.5443C9.19176 5.54464 8.78448 5.54474 8.3772 5.54471C7.95669 5.54468 7.53618 5.54512 7.11567 5.54576C6.75494 5.5463 6.39421 5.54652 6.03348 5.54649C5.81789 5.54648 5.60231 5.5466 5.38673 5.54703C5.18403 5.54743 4.98134 5.54744 4.77864 5.54714C4.70417 5.54709 4.6297 5.54719 4.55523 5.54744C4.45372 5.54775 4.35222 5.54757 4.25071 5.54725C4.22111 5.54746 4.19151 5.54767 4.16101 5.54789C4.01179 5.54685 3.8988 5.54007 3.77345 5.45508C3.65941 5.30665 3.67785 5.12641 3.6786 4.94751C3.67761 4.90302 3.67761 4.90302 3.6766 4.85763C3.67633 4.54228 3.74461 4.30449 3.81447 3.97851C2.77226 3.97851 1.73005 3.97851 0.656264 3.97851C0.656264 9.37904 0.656264 14.7796 0.656264 20.3437C5.38003 20.3437 10.1038 20.3437 14.9707 20.3437C14.9707 20.1813 14.9707 20.0189 14.9707 19.8516C15.1348 19.6875 15.1348 19.6875 15.2168 19.6657C15.2439 19.6661 15.2709 19.6666 15.2988 19.667C15.3394 19.6664 15.3394 19.6664 15.3809 19.6657C15.5006 19.6975 15.5488 19.7568 15.627 19.8516C15.6475 19.9579 15.6475 19.9579 15.6473 20.0771C15.6473 20.1203 15.6474 20.1634 15.6474 20.2079C15.6466 20.2527 15.6458 20.2976 15.6449 20.3437C15.6452 20.3886 15.6455 20.4334 15.6458 20.4796C15.6428 20.8607 15.6428 20.8607 15.5039 21C15.3902 21.0205 15.3902 21.0205 15.2489 21.0205C15.1952 21.0209 15.1414 21.0213 15.086 21.0218C15.026 21.0214 14.966 21.021 14.906 21.0206C14.8426 21.0207 14.7791 21.0209 14.7156 21.0212C14.5408 21.0219 14.366 21.0214 14.1911 21.0208C14.0027 21.0204 13.8143 21.0209 13.6259 21.0212C13.2567 21.0218 12.8875 21.0215 12.5182 21.0209C12.0886 21.0202 11.6589 21.0203 11.2293 21.0205C10.4628 21.0207 9.69641 21.0201 8.92998 21.0191C8.18565 21.0182 7.44133 21.0179 6.697 21.0183C5.88719 21.0188 5.07739 21.0188 4.26759 21.0182C4.1813 21.0182 4.09501 21.0181 4.00872 21.0181C3.96626 21.018 3.9238 21.018 3.88005 21.018C3.58029 21.0178 3.28054 21.0178 2.98078 21.018C2.61566 21.0182 2.25055 21.018 1.88543 21.0172C1.69901 21.0168 1.51259 21.0166 1.32617 21.0169C1.1557 21.0172 0.985247 21.0169 0.81478 21.0162C0.752927 21.016 0.691074 21.016 0.629221 21.0163C0.545503 21.0166 0.461784 21.0161 0.378067 21.0156C0.331457 21.0156 0.284847 21.0155 0.236824 21.0155C0.123061 21 0.123061 21 0.046575 20.9554C-0.0251974 20.8345 -0.0154724 20.7305 -0.0155843 20.5907C-0.015871 20.5465 -0.0158714 20.5465 -0.0161639 20.5014C-0.0166571 20.402 -0.0162674 20.3025 -0.0158866 20.203C-0.0160576 20.1313 -0.0162825 20.0596 -0.0165563 19.9879C-0.0171519 19.7902 -0.0169738 19.5925 -0.0166721 19.3948C-0.0164788 19.1819 -0.0169905 18.9689 -0.0174112 18.7559C-0.0181179 18.3385 -0.0181503 17.921 -0.0179357 17.5036C-0.0177702 17.1644 -0.0178287 16.8252 -0.0180483 16.4861C-0.018079 16.4379 -0.0181099 16.3897 -0.0181416 16.34C-0.0182044 16.2421 -0.0182672 16.1442 -0.0183306 16.0463C-0.0188941 15.1273 -0.0186699 14.2083 -0.0181998 13.2893C-0.0177923 12.4479 -0.0183237 11.6064 -0.019305 10.765C-0.0203041 9.9018 -0.0206997 9.0386 -0.0204265 8.17541C-0.020283 7.69047 -0.0203767 7.20553 -0.0210931 6.72058C-0.0216953 6.30776 -0.0217249 5.89495 -0.0210079 5.48212C-0.0206575 5.27136 -0.0205743 5.0606 -0.0211988 4.84983C-0.0217629 4.65707 -0.0215764 4.46433 -0.0207789 4.27157C-0.0206235 4.20166 -0.020748 4.13174 -0.0211732 4.06183C-0.0217084 3.96712 -0.0212424 3.87247 -0.0205167 3.77777C-0.0205122 3.72507 -0.020508 3.67237 -0.0205035 3.61807C0.00352948 3.46376 0.0411815 3.41538 0.164077 3.32226C0.246398 3.30208 0.246398 3.30208 0.334846 3.30253C0.368547 3.30231 0.402249 3.30208 0.436971 3.30185C0.473583 3.30244 0.510196 3.30303 0.547917 3.30364C0.586746 3.30361 0.625575 3.30359 0.66558 3.30357C0.793868 3.30368 0.922117 3.30496 1.0504 3.30624C1.13936 3.30655 1.22833 3.30678 1.31729 3.30695C1.55141 3.30757 1.78552 3.30918 2.01963 3.311C2.25854 3.31268 2.49745 3.31343 2.73637 3.31425C3.20511 3.31601 3.67385 3.31881 4.14259 3.32226C4.15459 3.29061 4.1666 3.25895 4.17896 3.22633C4.40382 2.68884 4.99018 2.25872 5.49611 2.00976C5.52318 2.00976 5.55025 2.00976 5.57814 2.00976C5.57872 1.98634 5.5793 1.96292 5.5799 1.93879C5.60824 1.45702 5.78967 1.05287 6.11134 0.697264C6.14513 0.655707 6.14513 0.655706 6.17959 0.61331C6.60533 0.129438 7.19571 -0.0083664 7.81093 -0.0153828ZM6.56764 1.18432C6.52358 1.23968 6.48075 1.29605 6.43947 1.35351C6.4226 1.37688 6.40573 1.40025 6.38836 1.42433C6.26166 1.63503 6.24399 1.86615 6.22497 2.10678C6.21005 2.27419 6.19466 2.38468 6.07033 2.50195C5.96506 2.56027 5.96506 2.56027 5.84218 2.61474C5.22238 2.91305 4.73688 3.43724 4.49843 4.08506C4.41571 4.35645 4.38869 4.5483 4.38869 4.83984C6.64906 4.83984 8.90943 4.83984 11.2383 4.83984C11.168 4.06668 10.9048 3.48325 10.336 2.95312C10.0836 2.7616 9.8027 2.618 9.52045 2.47568C9.43361 2.41992 9.43361 2.41992 9.39259 2.29687C9.38083 2.19868 9.36982 2.1004 9.35927 2.00207C9.32864 1.75791 9.29056 1.55615 9.1465 1.35351C9.11509 1.30823 9.11509 1.30823 9.08305 1.26203C8.834 0.944326 8.44302 0.7108 8.03908 0.656248C7.47535 0.614786 6.95992 0.758584 6.56764 1.18432Z" fill="white"/>
<path d="M2.39253 11.3143C2.45804 11.3139 2.45804 11.3139 2.52486 11.3135C2.57182 11.3135 2.61878 11.3134 2.66716 11.3134C2.7156 11.3133 2.76404 11.3131 2.81395 11.313C2.91638 11.3128 3.01881 11.3127 3.12124 11.3127C3.27796 11.3126 3.43466 11.3118 3.59137 11.3111C3.69089 11.3109 3.79041 11.3109 3.88994 11.3108C3.96025 11.3104 3.96025 11.3104 4.03198 11.3099C4.07577 11.3101 4.11957 11.3102 4.1647 11.3103C4.20309 11.3103 4.24149 11.3102 4.28105 11.3101C4.44573 11.3257 4.55857 11.3671 4.6758 11.4843C4.72183 11.6165 4.72225 11.743 4.72277 11.8822C4.72304 11.9291 4.7233 11.9761 4.72357 12.0244C4.72361 12.075 4.72366 12.1255 4.72371 12.1776C4.72391 12.2557 4.72391 12.2557 4.72412 12.3354C4.72433 12.4456 4.72444 12.5557 4.72442 12.6659C4.72441 12.8068 4.72497 12.9476 4.72568 13.0885C4.72625 13.2232 4.72622 13.3579 4.72627 13.4927C4.72656 13.5431 4.72686 13.5936 4.72716 13.6456C4.72704 13.6927 4.72691 13.7398 4.72678 13.7883C4.72684 13.8296 4.7269 13.8709 4.72696 13.9134C4.712 14.0814 4.67234 14.1948 4.55275 14.3144C4.42399 14.3588 4.30165 14.3611 4.16624 14.362C4.09951 14.3626 4.09951 14.3626 4.03142 14.3632C3.98357 14.3634 3.93571 14.3636 3.88641 14.3638C3.81238 14.3641 3.81238 14.3641 3.73686 14.3645C3.6325 14.3649 3.52813 14.3651 3.42377 14.3653C3.26408 14.3657 3.10442 14.367 2.94473 14.3683C2.84334 14.3685 2.74195 14.3687 2.64056 14.3689C2.59279 14.3694 2.54502 14.3699 2.4958 14.3704C2.45118 14.3703 2.40656 14.3702 2.36059 14.3701C2.3019 14.3703 2.3019 14.3703 2.24203 14.3705C2.11033 14.3523 2.03462 14.3105 1.92775 14.2324C1.83278 14.0899 1.83499 14.0334 1.83381 13.8652C1.83328 13.815 1.83276 13.7647 1.83222 13.7129C1.8321 13.6581 1.832 13.6032 1.83194 13.5483C1.83168 13.4919 1.8314 13.4356 1.83112 13.3792C1.83063 13.2611 1.83047 13.143 1.83052 13.0249C1.83053 12.8737 1.82941 12.7226 1.828 12.5715C1.82708 12.4551 1.82692 12.3387 1.82696 12.2223C1.82687 12.1666 1.8265 12.1109 1.82587 12.0552C1.82506 11.9772 1.82541 11.8992 1.8258 11.8211C1.82568 11.7768 1.82556 11.7324 1.82544 11.6868C1.85091 11.5356 1.90098 11.4679 2.00979 11.3613C2.13369 11.3094 2.2592 11.3149 2.39253 11.3143ZM2.54299 12.0175C2.54299 12.559 2.54299 13.1004 2.54299 13.6582C3.03025 13.6582 3.51752 13.6582 4.01955 13.6582C4.01955 13.1168 4.01955 12.5754 4.01955 12.0175C3.53229 12.0175 3.04502 12.0175 2.54299 12.0175Z" fill="white"/>
<path d="M2.32088 15.6197C2.36784 15.6192 2.4148 15.6186 2.46318 15.6181C2.51393 15.6178 2.56469 15.6175 2.61699 15.6172C2.66913 15.6168 2.72127 15.6165 2.77499 15.6162C2.88539 15.6156 2.99579 15.6151 3.10619 15.6148C3.24738 15.6144 3.38854 15.613 3.52972 15.6113C3.66468 15.61 3.79965 15.6098 3.93461 15.6095C4.0105 15.6084 4.0105 15.6084 4.08792 15.6073C4.13513 15.6074 4.18235 15.6075 4.231 15.6077C4.29315 15.6073 4.29315 15.6073 4.35655 15.6069C4.50365 15.6327 4.57148 15.6856 4.67578 15.791C4.72999 15.9188 4.72223 16.0512 4.72275 16.1888C4.72301 16.2358 4.72328 16.2827 4.72355 16.3311C4.72359 16.3816 4.72364 16.4322 4.72368 16.4843C4.72389 16.5624 4.72389 16.5624 4.7241 16.6421C4.7243 16.7522 4.72442 16.8624 4.72439 16.9726C4.72439 17.1134 4.72495 17.2543 4.72566 17.3951C4.72622 17.5299 4.7262 17.6646 4.72625 17.7993C4.72654 17.8498 4.72684 17.9003 4.72714 17.9522C4.72701 17.9993 4.72689 18.0464 4.72676 18.0949C4.72682 18.1362 4.72687 18.1775 4.72693 18.2201C4.71599 18.343 4.6915 18.4296 4.63476 18.539C4.49268 18.6338 4.43764 18.6316 4.27003 18.6323C4.22034 18.6327 4.17066 18.6331 4.11947 18.6335C4.06576 18.6335 4.01206 18.6335 3.95672 18.6334C3.9011 18.6336 3.84548 18.6338 3.78985 18.6339C3.67331 18.6343 3.55678 18.6342 3.44024 18.634C3.29087 18.6338 3.14151 18.6345 2.99214 18.6354C2.87729 18.636 2.76244 18.6361 2.64759 18.6359C2.56573 18.636 2.48387 18.6365 2.40201 18.6371C2.32748 18.6367 2.32748 18.6367 2.25145 18.6364C2.20765 18.6364 2.16385 18.6364 2.11872 18.6364C2.00976 18.6211 2.00976 18.6211 1.9357 18.5663C1.83652 18.4281 1.84015 18.2988 1.83909 18.1346C1.8387 18.0852 1.8383 18.0358 1.8379 17.9848C1.83772 17.9314 1.83755 17.8779 1.83737 17.8229C1.83713 17.7675 1.8369 17.712 1.83666 17.6566C1.83623 17.5404 1.83599 17.4242 1.83585 17.308C1.83562 17.1594 1.83464 17.0108 1.83347 16.8621C1.8327 16.7476 1.83249 16.6331 1.83243 16.5186C1.83224 16.4373 1.83148 16.3559 1.83071 16.2746C1.83083 16.2249 1.83095 16.1752 1.83108 16.124C1.83093 16.0804 1.83078 16.0368 1.83063 15.9919C1.84806 15.8544 1.88497 15.7776 1.96875 15.668C2.09635 15.6254 2.187 15.621 2.32088 15.6197ZM2.54297 16.3242C2.54297 16.8656 2.54297 17.407 2.54297 17.9648C3.03023 17.9648 3.5175 17.9648 4.01953 17.9648C4.01953 17.4234 4.01953 16.882 4.01953 16.3242C3.53226 16.3242 3.045 16.3242 2.54297 16.3242Z" fill="white"/>
<path d="M2.25988 7.07049C2.33563 7.06992 2.33563 7.06992 2.41291 7.06934C2.46786 7.06998 2.5228 7.07066 2.57774 7.07137C2.63422 7.07144 2.69071 7.07144 2.74719 7.07137C2.86543 7.07144 2.98363 7.0722 3.10186 7.0735C3.2534 7.07513 3.4049 7.0753 3.55644 7.075C3.67302 7.07487 3.78959 7.07537 3.90616 7.07607C3.96204 7.07636 4.01791 7.07648 4.07379 7.07645C4.15184 7.07652 4.22989 7.07749 4.30793 7.0785C4.35234 7.07885 4.39675 7.07919 4.4425 7.07955C4.55274 7.09573 4.55274 7.09573 4.627 7.14807C4.72813 7.29463 4.7221 7.44283 4.72276 7.61658C4.72302 7.66354 4.72328 7.71049 4.72355 7.75887C4.72359 7.80941 4.72364 7.85996 4.72369 7.91203C4.72389 7.99016 4.72389 7.99016 4.7241 8.06986C4.72431 8.18002 4.72442 8.29017 4.7244 8.40033C4.72439 8.54118 4.72495 8.68203 4.72566 8.82289C4.72623 8.95762 4.7262 9.09236 4.72625 9.2271C4.72655 9.27756 4.72684 9.32802 4.72714 9.38001C4.72702 9.4271 4.72689 9.47418 4.72676 9.52269C4.72682 9.564 4.72688 9.60531 4.72694 9.64787C4.71576 9.77341 4.69631 9.85661 4.63477 9.96682C4.48996 10.0808 4.38077 10.1053 4.19882 10.1051C4.15351 10.1054 4.1082 10.1056 4.06152 10.1059C3.98871 10.1053 3.98871 10.1053 3.91443 10.1048C3.86422 10.1048 3.81402 10.1048 3.76229 10.1048C3.65625 10.1047 3.5502 10.1043 3.44415 10.1037C3.28186 10.1027 3.11959 10.1028 2.95729 10.1031C2.85422 10.1029 2.75115 10.1026 2.64807 10.1022C2.59953 10.1022 2.55099 10.1023 2.50098 10.1023C2.45567 10.1019 2.41037 10.1015 2.36369 10.1011C2.30409 10.1008 2.30409 10.1008 2.24329 10.1006C2.12122 10.0887 2.03564 10.0664 1.92774 10.0078C1.83147 9.87799 1.83491 9.75298 1.83379 9.59497C1.83326 9.54473 1.83274 9.49449 1.8322 9.44273C1.83211 9.3886 1.83202 9.33446 1.83193 9.27869C1.83166 9.2224 1.83139 9.16611 1.8311 9.10982C1.83061 8.99194 1.83045 8.87407 1.8305 8.75619C1.83051 8.60539 1.82939 8.45462 1.82798 8.30383C1.82707 8.18761 1.8269 8.07139 1.82694 7.95516C1.8268 7.87262 1.82591 7.79008 1.82501 7.70755C1.82526 7.65718 1.82552 7.60681 1.82578 7.55492C1.82566 7.51069 1.82554 7.46647 1.82542 7.4209C1.87029 7.15523 2.00128 7.07 2.25988 7.07049ZM2.54297 7.71096C2.54297 8.25237 2.54297 8.79377 2.54297 9.35159C3.03024 9.35159 3.5175 9.35159 4.01953 9.35159C4.01953 8.81018 4.01953 8.26877 4.01953 7.71096C3.53227 7.71096 3.045 7.71096 2.54297 7.71096Z" fill="white"/>
<path d="M8.39811 1.34054C8.71247 1.52478 8.89545 1.75013 9.02344 2.0918C9.11413 2.46787 9.08248 2.84142 8.88084 3.17695C8.66895 3.46866 8.42651 3.63484 8.08008 3.73242C7.65055 3.77619 7.32235 3.71656 6.9624 3.4812C6.68639 3.19264 6.54529 2.88212 6.50867 2.48657C6.53893 2.13548 6.65571 1.82453 6.89062 1.55859C7.31838 1.2006 7.88274 1.09766 8.39811 1.34054ZM7.28027 2.16101C7.2005 2.33717 7.18597 2.47582 7.21875 2.66602C7.30887 2.86503 7.42735 2.96375 7.62282 3.05022C7.77147 3.094 7.89355 3.08747 8.03906 3.03516C8.19306 2.94316 8.29913 2.83276 8.36719 2.66602C8.39725 2.47378 8.3854 2.332 8.29541 2.15845C8.14363 1.98137 8.04096 1.90323 7.79938 1.88159C7.5796 1.89433 7.42629 2.00404 7.28027 2.16101Z" fill="white"/>
<path d="M5.73117 8.19738C5.78947 8.19703 5.78947 8.19703 5.84895 8.19667C5.89131 8.19663 5.93367 8.19658 5.97732 8.19653C6.04457 8.19623 6.04457 8.19623 6.11318 8.19592C6.26157 8.19532 6.40997 8.19504 6.55836 8.19481C6.66145 8.19458 6.76454 8.19434 6.86763 8.1941C7.05619 8.19373 7.24475 8.19347 7.4333 8.19334C7.71051 8.19316 7.9877 8.19244 8.2649 8.19125C8.50531 8.19026 8.74572 8.18994 8.98614 8.18987C9.08828 8.18975 9.19042 8.18942 9.29256 8.18888C9.43542 8.18818 9.57826 8.18826 9.72111 8.18852C9.76331 8.18815 9.80551 8.18777 9.84898 8.18738C10.0684 8.18866 10.2302 8.19858 10.418 8.32619C10.4699 8.44721 10.4696 8.56478 10.459 8.69533C10.4077 8.79787 10.4077 8.79787 10.336 8.85939C10.2172 8.89899 10.1421 8.90565 10.0186 8.90589C9.95866 8.90616 9.95866 8.90616 9.8975 8.90642C9.85371 8.9064 9.80992 8.90639 9.7648 8.90637C9.69556 8.90657 9.69556 8.90657 9.62492 8.90678C9.47192 8.90717 9.31891 8.90725 9.1659 8.9073C9.0598 8.90743 8.9537 8.90757 8.84759 8.90771C8.62503 8.90796 8.40246 8.90804 8.17989 8.90801C7.92266 8.90798 7.66542 8.90842 7.40818 8.90906C7.16069 8.90967 6.91321 8.90981 6.66572 8.90979C6.56042 8.90984 6.45512 8.91002 6.34982 8.91034C6.20272 8.91074 6.05563 8.91062 5.90853 8.91037C5.86483 8.9106 5.82112 8.91083 5.77609 8.91107C5.73601 8.9109 5.69593 8.91073 5.65463 8.91055C5.60247 8.91058 5.60247 8.91058 5.54926 8.91062C5.44514 8.89933 5.37935 8.87409 5.29105 8.81838C5.24333 8.72294 5.24187 8.66058 5.23978 8.55434C5.23819 8.5062 5.23819 8.5062 5.23657 8.45709C5.25003 8.36721 5.25003 8.36721 5.30194 8.29655C5.43322 8.19986 5.57222 8.19796 5.73117 8.19738Z" fill="white"/>
<path d="M5.42512 16.7693C5.46186 16.7691 5.4986 16.7688 5.53646 16.7685C5.57688 16.7683 5.6173 16.7682 5.65895 16.7681C5.70143 16.7679 5.74392 16.7676 5.7877 16.7673C5.92875 16.7665 6.06979 16.766 6.21085 16.7656C6.25893 16.7654 6.30702 16.7653 6.35656 16.7651C6.61104 16.7642 6.86551 16.7637 7.11999 16.7633C7.38315 16.7628 7.6463 16.7614 7.90947 16.7598C8.11154 16.7587 8.31361 16.7584 8.51569 16.7582C8.61271 16.758 8.70973 16.7575 8.80675 16.7568C8.94246 16.7558 9.07814 16.7558 9.21385 16.7561C9.25402 16.7556 9.29419 16.7551 9.33558 16.7545C9.51342 16.7559 9.61182 16.7589 9.76626 16.8535C9.85038 16.9468 9.87006 16.9801 9.86428 17.1035C9.85473 17.246 9.83056 17.3336 9.72072 17.4316C9.60442 17.469 9.49833 17.4779 9.37665 17.4784C9.34089 17.4786 9.30513 17.4789 9.26828 17.4791C9.22937 17.4792 9.19046 17.4792 9.15037 17.4793C9.10914 17.4795 9.0679 17.4797 9.02542 17.4799C8.88901 17.4805 8.7526 17.4808 8.61619 17.481C8.52137 17.4812 8.42656 17.4815 8.33175 17.4817C8.13294 17.4821 7.93414 17.4824 7.73533 17.4825C7.48064 17.4827 7.22595 17.4837 6.97125 17.4849C6.77541 17.4856 6.57956 17.4859 6.38371 17.4859C6.28981 17.486 6.19592 17.4864 6.10202 17.4869C5.97065 17.4876 5.83931 17.4875 5.70794 17.4873C5.6692 17.4876 5.63045 17.488 5.59054 17.4884C5.37824 17.4871 5.22799 17.47 5.04494 17.3496C4.99049 17.2421 4.98933 17.1404 5.00393 17.0215C5.12166 16.8307 5.20632 16.7705 5.42512 16.7693Z" fill="white"/>
<path d="M5.69763 12.4886C5.72533 12.4883 5.75304 12.488 5.78158 12.4877C5.87271 12.487 5.96379 12.4875 6.05491 12.488C6.1185 12.4879 6.18209 12.4877 6.24567 12.4875C6.37876 12.4873 6.51183 12.4876 6.64491 12.4884C6.81525 12.4893 6.98555 12.4888 7.15589 12.4878C7.28714 12.4872 7.41838 12.4874 7.54963 12.4878C7.61242 12.488 7.67522 12.4878 7.73801 12.4874C7.82588 12.487 7.91369 12.4877 8.00155 12.4886C8.05149 12.4887 8.10142 12.4888 8.15286 12.489C8.31076 12.5138 8.37865 12.5612 8.49022 12.6739C8.54052 12.8216 8.5446 12.889 8.48253 13.0327C8.40222 13.1324 8.36221 13.1621 8.24412 13.2071C8.11989 13.2178 8.11989 13.2178 7.97273 13.2183C7.93238 13.2186 7.93238 13.2186 7.89122 13.219C7.80254 13.2195 7.71388 13.2195 7.6252 13.2194C7.5634 13.2196 7.50159 13.2197 7.43979 13.2199C7.31032 13.2202 7.18086 13.2202 7.0514 13.22C6.88571 13.2198 6.72004 13.2205 6.55435 13.2214C6.42673 13.222 6.29911 13.2221 6.17148 13.2219C6.1104 13.222 6.04933 13.2222 5.98825 13.2226C5.90274 13.2231 5.81727 13.2228 5.73177 13.2223C5.68317 13.2224 5.63457 13.2224 5.5845 13.2224C5.44171 13.2055 5.36441 13.1696 5.24998 13.084C5.18571 12.9555 5.17404 12.812 5.20897 12.6739C5.36802 12.5151 5.47582 12.4891 5.69763 12.4886Z" fill="white"/>
</g>
<defs>
<clipPath id="clip0_40_4124">
<rect width="21" height="21" fill="white"/>
</clipPath>
</defs>
</svg>
